M48
; DRILL file {KiCad (6.0.8)} date Tue Jan 31 16:58:17 2023
; FORMAT={-:-/ absolute / inch / decimal}
; #@! TF.CreationDate,2023-01-31T16:58:17-08:00
; #@! TF.GenerationSoftware,Kicad,Pcbnew,(6.0.8)
; #@! TF.FileFunction,Plated,1,4,PTH
FMAT,2
INCH
; #@! TA.AperFunction,Plated,PTH,ViaDrill
T1C0.0100
; #@! TA.AperFunction,Plated,PTH,ViaDrill
T2C0.0200
; #@! TA.AperFunction,Plated,PTH,ComponentDrill
T3C0.0394
%
G90
G05
T1
X5.1102Y-3.7205
X5.1654Y-3.7205
X5.2205Y-3.9882
X5.2283Y-3.9252
X5.2314Y-3.7156
X5.2323Y-3.8858
X5.2638Y-3.7638
X5.2717Y-3.9331
X5.3268Y-3.5118
X5.3889Y-3.7156
X5.3937Y-4.0551
X5.3976Y-3.6811
X5.3976Y-3.7992
X5.4016Y-3.6614
X5.4055Y-3.5906
X5.4125Y-3.7549
X5.4291Y-3.8465
X5.4439Y-3.5866
X5.4724Y-3.374
X5.4724Y-3.8622
X5.4724Y-4.0709
X5.4754Y-3.5866
X5.4872Y-3.6811
X5.4911Y-3.6417
X5.4921Y-3.8307
X5.4961Y-3.2159
X5.4961Y-3.9646
X5.5187Y-3.6417
X5.5266Y-3.7047
X5.5394Y-3.7992
X5.5591Y-3.7598
X5.5817Y-3.6457
X5.5827Y-3.4528
X5.5856Y-3.689
X5.6024Y-3.811
X5.6211Y-3.7598
X5.625Y-3.6417
X5.6289Y-3.7047
X5.6289Y-4.0984
X5.6378Y-3.3898
X5.6566Y-3.5856
X5.6683Y-3.7598
X5.7038Y-3.5896
X5.7038Y-3.7549
X5.7078Y-3.6604
X5.7117Y-3.6289
X5.7117Y-3.7195
X5.7235Y-3.6841
X5.7431Y-3.9488
X5.752Y-3.4685
X5.818Y-3.7628
X5.8494Y-3.8937
T2
X5.093Y-3.2362
X5.1048Y-3.5354
X5.1693Y-3.6496
X5.2283Y-3.3307
X5.2323Y-3.3976
X5.2583Y-3.5118
X5.315Y-3.8425
X5.3253Y-3.2362
X5.3346Y-4.0
X5.3386Y-3.6614
T3
X4.8858Y-3.2252
X4.8858Y-3.3252
X4.8858Y-3.4252
X4.9341Y-3.8878
X4.9341Y-3.9878
X5.4305Y-4.1614
X5.5305Y-4.1614
X5.9488Y-3.937
X5.9488Y-4.037
X5.9488Y-4.137
T0
M30
