%TF.GenerationSoftware,KiCad,Pcbnew,(6.0.8)*%
%TF.CreationDate,2023-01-31T16:58:12-08:00*%
%TF.ProjectId,Microwave Sensor v2,4d696372-6f77-4617-9665-2053656e736f,rev?*%
%TF.SameCoordinates,Original*%
%TF.FileFunction,Legend,Bot*%
%TF.FilePolarity,Positive*%
%FSLAX46Y46*%
G04 Gerber Fmt 4.6, Leading zero omitted, Abs format (unit mm)*
G04 Created by KiCad (PCBNEW (6.0.8)) date 2023-01-31 16:58:12*
%MOMM*%
%LPD*%
G01*
G04 APERTURE LIST*
%ADD10C,0.095250*%
%ADD11C,0.127000*%
%ADD12C,0.254000*%
%ADD13C,0.120000*%
%ADD14C,0.200000*%
G04 APERTURE END LIST*
D10*
X135708214Y-94872357D02*
X135925928Y-94872357D01*
X135817071Y-94872357D02*
X135817071Y-94491357D01*
X135853357Y-94545785D01*
X135889642Y-94582071D01*
X135925928Y-94600214D01*
X135472357Y-94491357D02*
X135436071Y-94491357D01*
X135399785Y-94509500D01*
X135381642Y-94527642D01*
X135363500Y-94563928D01*
X135345357Y-94636500D01*
X135345357Y-94727214D01*
X135363500Y-94799785D01*
X135381642Y-94836071D01*
X135399785Y-94854214D01*
X135436071Y-94872357D01*
X135472357Y-94872357D01*
X135508642Y-94854214D01*
X135526785Y-94836071D01*
X135544928Y-94799785D01*
X135563071Y-94727214D01*
X135563071Y-94636500D01*
X135544928Y-94563928D01*
X135526785Y-94527642D01*
X135508642Y-94509500D01*
X135472357Y-94491357D01*
X135109500Y-94491357D02*
X135073214Y-94491357D01*
X135036928Y-94509500D01*
X135018785Y-94527642D01*
X135000642Y-94563928D01*
X134982500Y-94636500D01*
X134982500Y-94727214D01*
X135000642Y-94799785D01*
X135018785Y-94836071D01*
X135036928Y-94854214D01*
X135073214Y-94872357D01*
X135109500Y-94872357D01*
X135145785Y-94854214D01*
X135163928Y-94836071D01*
X135182071Y-94799785D01*
X135200214Y-94727214D01*
X135200214Y-94636500D01*
X135182071Y-94563928D01*
X135163928Y-94527642D01*
X135145785Y-94509500D01*
X135109500Y-94491357D01*
X134819214Y-94872357D02*
X134819214Y-94491357D01*
X134782928Y-94727214D02*
X134674071Y-94872357D01*
X134674071Y-94618357D02*
X134819214Y-94763500D01*
X143791357Y-87382928D02*
X143791357Y-87201500D01*
X143972785Y-87183357D01*
X143954642Y-87201500D01*
X143936500Y-87237785D01*
X143936500Y-87328500D01*
X143954642Y-87364785D01*
X143972785Y-87382928D01*
X144009071Y-87401071D01*
X144099785Y-87401071D01*
X144136071Y-87382928D01*
X144154214Y-87364785D01*
X144172357Y-87328500D01*
X144172357Y-87237785D01*
X144154214Y-87201500D01*
X144136071Y-87183357D01*
X144136071Y-87564357D02*
X144154214Y-87582500D01*
X144172357Y-87564357D01*
X144154214Y-87546214D01*
X144136071Y-87564357D01*
X144172357Y-87564357D01*
X143791357Y-87909071D02*
X143791357Y-87836500D01*
X143809500Y-87800214D01*
X143827642Y-87782071D01*
X143882071Y-87745785D01*
X143954642Y-87727642D01*
X144099785Y-87727642D01*
X144136071Y-87745785D01*
X144154214Y-87763928D01*
X144172357Y-87800214D01*
X144172357Y-87872785D01*
X144154214Y-87909071D01*
X144136071Y-87927214D01*
X144099785Y-87945357D01*
X144009071Y-87945357D01*
X143972785Y-87927214D01*
X143954642Y-87909071D01*
X143936500Y-87872785D01*
X143936500Y-87800214D01*
X143954642Y-87763928D01*
X143972785Y-87745785D01*
X144009071Y-87727642D01*
X143918357Y-88108642D02*
X144172357Y-88108642D01*
X143954642Y-88108642D02*
X143936500Y-88126785D01*
X143918357Y-88163071D01*
X143918357Y-88217500D01*
X143936500Y-88253785D01*
X143972785Y-88271928D01*
X144172357Y-88271928D01*
X143972785Y-88580357D02*
X143972785Y-88453357D01*
X144172357Y-88453357D02*
X143791357Y-88453357D01*
X143791357Y-88634785D01*
X140272357Y-95391785D02*
X140272357Y-95174071D01*
X140272357Y-95282928D02*
X139891357Y-95282928D01*
X139945785Y-95246642D01*
X139982071Y-95210357D01*
X140000214Y-95174071D01*
X139891357Y-95627642D02*
X139891357Y-95663928D01*
X139909500Y-95700214D01*
X139927642Y-95718357D01*
X139963928Y-95736500D01*
X140036500Y-95754642D01*
X140127214Y-95754642D01*
X140199785Y-95736500D01*
X140236071Y-95718357D01*
X140254214Y-95700214D01*
X140272357Y-95663928D01*
X140272357Y-95627642D01*
X140254214Y-95591357D01*
X140236071Y-95573214D01*
X140199785Y-95555071D01*
X140127214Y-95536928D01*
X140036500Y-95536928D01*
X139963928Y-95555071D01*
X139927642Y-95573214D01*
X139909500Y-95591357D01*
X139891357Y-95627642D01*
X139891357Y-95990500D02*
X139891357Y-96026785D01*
X139909500Y-96063071D01*
X139927642Y-96081214D01*
X139963928Y-96099357D01*
X140036500Y-96117500D01*
X140127214Y-96117500D01*
X140199785Y-96099357D01*
X140236071Y-96081214D01*
X140254214Y-96063071D01*
X140272357Y-96026785D01*
X140272357Y-95990500D01*
X140254214Y-95954214D01*
X140236071Y-95936071D01*
X140199785Y-95917928D01*
X140127214Y-95899785D01*
X140036500Y-95899785D01*
X139963928Y-95917928D01*
X139927642Y-95936071D01*
X139909500Y-95954214D01*
X139891357Y-95990500D01*
X140272357Y-96280785D02*
X139891357Y-96280785D01*
X140127214Y-96317071D02*
X140272357Y-96425928D01*
X140018357Y-96425928D02*
X140163500Y-96280785D01*
D11*
X142084666Y-81581428D02*
X142108857Y-81605619D01*
X142181428Y-81629809D01*
X142229809Y-81629809D01*
X142302380Y-81605619D01*
X142350761Y-81557238D01*
X142374952Y-81508857D01*
X142399142Y-81412095D01*
X142399142Y-81339523D01*
X142374952Y-81242761D01*
X142350761Y-81194380D01*
X142302380Y-81146000D01*
X142229809Y-81121809D01*
X142181428Y-81121809D01*
X142108857Y-81146000D01*
X142084666Y-81170190D01*
X141891142Y-81605619D02*
X141818571Y-81629809D01*
X141697619Y-81629809D01*
X141649238Y-81605619D01*
X141625047Y-81581428D01*
X141600857Y-81533047D01*
X141600857Y-81484666D01*
X141625047Y-81436285D01*
X141649238Y-81412095D01*
X141697619Y-81387904D01*
X141794380Y-81363714D01*
X141842761Y-81339523D01*
X141866952Y-81315333D01*
X141891142Y-81266952D01*
X141891142Y-81218571D01*
X141866952Y-81170190D01*
X141842761Y-81146000D01*
X141794380Y-81121809D01*
X141673428Y-81121809D01*
X141600857Y-81146000D01*
X133729809Y-90413809D02*
X133729809Y-90123523D01*
X133729809Y-90268666D02*
X133221809Y-90268666D01*
X133294380Y-90220285D01*
X133342761Y-90171904D01*
X133366952Y-90123523D01*
X133221809Y-90728285D02*
X133221809Y-90776666D01*
X133246000Y-90825047D01*
X133270190Y-90849238D01*
X133318571Y-90873428D01*
X133415333Y-90897619D01*
X133536285Y-90897619D01*
X133633047Y-90873428D01*
X133681428Y-90849238D01*
X133705619Y-90825047D01*
X133729809Y-90776666D01*
X133729809Y-90728285D01*
X133705619Y-90679904D01*
X133681428Y-90655714D01*
X133633047Y-90631523D01*
X133536285Y-90607333D01*
X133415333Y-90607333D01*
X133318571Y-90631523D01*
X133270190Y-90655714D01*
X133246000Y-90679904D01*
X133221809Y-90728285D01*
X133221809Y-91212095D02*
X133221809Y-91260476D01*
X133246000Y-91308857D01*
X133270190Y-91333047D01*
X133318571Y-91357238D01*
X133415333Y-91381428D01*
X133536285Y-91381428D01*
X133633047Y-91357238D01*
X133681428Y-91333047D01*
X133705619Y-91308857D01*
X133729809Y-91260476D01*
X133729809Y-91212095D01*
X133705619Y-91163714D01*
X133681428Y-91139523D01*
X133633047Y-91115333D01*
X133536285Y-91091142D01*
X133415333Y-91091142D01*
X133318571Y-91115333D01*
X133270190Y-91139523D01*
X133246000Y-91163714D01*
X133221809Y-91212095D01*
X133391142Y-91599142D02*
X133729809Y-91599142D01*
X133439523Y-91599142D02*
X133415333Y-91623333D01*
X133391142Y-91671714D01*
X133391142Y-91744285D01*
X133415333Y-91792666D01*
X133463714Y-91816857D01*
X133729809Y-91816857D01*
X133463714Y-92228095D02*
X133463714Y-92058761D01*
X133729809Y-92058761D02*
X133221809Y-92058761D01*
X133221809Y-92300666D01*
X131886190Y-94952261D02*
X131674523Y-95587261D01*
X131462857Y-94952261D01*
X130979047Y-95587261D02*
X130979047Y-94952261D01*
X130979047Y-95557023D02*
X131039523Y-95587261D01*
X131160476Y-95587261D01*
X131220952Y-95557023D01*
X131251190Y-95526785D01*
X131281428Y-95466309D01*
X131281428Y-95284880D01*
X131251190Y-95224404D01*
X131220952Y-95194166D01*
X131160476Y-95163928D01*
X131039523Y-95163928D01*
X130979047Y-95194166D01*
X130404523Y-95587261D02*
X130404523Y-94952261D01*
X130404523Y-95557023D02*
X130465000Y-95587261D01*
X130585952Y-95587261D01*
X130646428Y-95557023D01*
X130676666Y-95526785D01*
X130706904Y-95466309D01*
X130706904Y-95284880D01*
X130676666Y-95224404D01*
X130646428Y-95194166D01*
X130585952Y-95163928D01*
X130465000Y-95163928D01*
X130404523Y-95194166D01*
X137629809Y-89497619D02*
X137629809Y-89207333D01*
X137629809Y-89352476D02*
X137121809Y-89352476D01*
X137194380Y-89304095D01*
X137242761Y-89255714D01*
X137266952Y-89207333D01*
X137121809Y-89812095D02*
X137121809Y-89860476D01*
X137146000Y-89908857D01*
X137170190Y-89933047D01*
X137218571Y-89957238D01*
X137315333Y-89981428D01*
X137436285Y-89981428D01*
X137533047Y-89957238D01*
X137581428Y-89933047D01*
X137605619Y-89908857D01*
X137629809Y-89860476D01*
X137629809Y-89812095D01*
X137605619Y-89763714D01*
X137581428Y-89739523D01*
X137533047Y-89715333D01*
X137436285Y-89691142D01*
X137315333Y-89691142D01*
X137218571Y-89715333D01*
X137170190Y-89739523D01*
X137146000Y-89763714D01*
X137121809Y-89812095D01*
X137629809Y-90199142D02*
X137121809Y-90199142D01*
X137436285Y-90247523D02*
X137629809Y-90392666D01*
X137291142Y-90392666D02*
X137484666Y-90199142D01*
D10*
X144808214Y-90372357D02*
X145025928Y-90372357D01*
X144917071Y-90372357D02*
X144917071Y-89991357D01*
X144953357Y-90045785D01*
X144989642Y-90082071D01*
X145025928Y-90100214D01*
X144572357Y-89991357D02*
X144536071Y-89991357D01*
X144499785Y-90009500D01*
X144481642Y-90027642D01*
X144463500Y-90063928D01*
X144445357Y-90136500D01*
X144445357Y-90227214D01*
X144463500Y-90299785D01*
X144481642Y-90336071D01*
X144499785Y-90354214D01*
X144536071Y-90372357D01*
X144572357Y-90372357D01*
X144608642Y-90354214D01*
X144626785Y-90336071D01*
X144644928Y-90299785D01*
X144663071Y-90227214D01*
X144663071Y-90136500D01*
X144644928Y-90063928D01*
X144626785Y-90027642D01*
X144608642Y-90009500D01*
X144572357Y-89991357D01*
X144282071Y-90118357D02*
X144282071Y-90372357D01*
X144282071Y-90154642D02*
X144263928Y-90136500D01*
X144227642Y-90118357D01*
X144173214Y-90118357D01*
X144136928Y-90136500D01*
X144118785Y-90172785D01*
X144118785Y-90372357D01*
X143810357Y-90172785D02*
X143937357Y-90172785D01*
X143937357Y-90372357D02*
X143937357Y-89991357D01*
X143755928Y-89991357D01*
D11*
X128002380Y-90929809D02*
X128292666Y-90929809D01*
X128147523Y-90929809D02*
X128147523Y-90421809D01*
X128195904Y-90494380D01*
X128244285Y-90542761D01*
X128292666Y-90566952D01*
X127687904Y-90421809D02*
X127639523Y-90421809D01*
X127591142Y-90446000D01*
X127566952Y-90470190D01*
X127542761Y-90518571D01*
X127518571Y-90615333D01*
X127518571Y-90736285D01*
X127542761Y-90833047D01*
X127566952Y-90881428D01*
X127591142Y-90905619D01*
X127639523Y-90929809D01*
X127687904Y-90929809D01*
X127736285Y-90905619D01*
X127760476Y-90881428D01*
X127784666Y-90833047D01*
X127808857Y-90736285D01*
X127808857Y-90615333D01*
X127784666Y-90518571D01*
X127760476Y-90470190D01*
X127736285Y-90446000D01*
X127687904Y-90421809D01*
X127300857Y-90929809D02*
X127300857Y-90421809D01*
X127252476Y-90736285D02*
X127107333Y-90929809D01*
X127107333Y-90591142D02*
X127300857Y-90784666D01*
D10*
X141808214Y-104572357D02*
X142025928Y-104572357D01*
X141917071Y-104572357D02*
X141917071Y-104191357D01*
X141953357Y-104245785D01*
X141989642Y-104282071D01*
X142025928Y-104300214D01*
X141572357Y-104191357D02*
X141536071Y-104191357D01*
X141499785Y-104209500D01*
X141481642Y-104227642D01*
X141463500Y-104263928D01*
X141445357Y-104336500D01*
X141445357Y-104427214D01*
X141463500Y-104499785D01*
X141481642Y-104536071D01*
X141499785Y-104554214D01*
X141536071Y-104572357D01*
X141572357Y-104572357D01*
X141608642Y-104554214D01*
X141626785Y-104536071D01*
X141644928Y-104499785D01*
X141663071Y-104427214D01*
X141663071Y-104336500D01*
X141644928Y-104263928D01*
X141626785Y-104227642D01*
X141608642Y-104209500D01*
X141572357Y-104191357D01*
X141209500Y-104191357D02*
X141173214Y-104191357D01*
X141136928Y-104209500D01*
X141118785Y-104227642D01*
X141100642Y-104263928D01*
X141082500Y-104336500D01*
X141082500Y-104427214D01*
X141100642Y-104499785D01*
X141118785Y-104536071D01*
X141136928Y-104554214D01*
X141173214Y-104572357D01*
X141209500Y-104572357D01*
X141245785Y-104554214D01*
X141263928Y-104536071D01*
X141282071Y-104499785D01*
X141300214Y-104427214D01*
X141300214Y-104336500D01*
X141282071Y-104263928D01*
X141263928Y-104227642D01*
X141245785Y-104209500D01*
X141209500Y-104191357D01*
X140919214Y-104572357D02*
X140919214Y-104191357D01*
X140882928Y-104427214D02*
X140774071Y-104572357D01*
X140774071Y-104318357D02*
X140919214Y-104463500D01*
D11*
%TO.C,R2*%
X135687261Y-89694166D02*
X135384880Y-89482500D01*
X135687261Y-89331309D02*
X135052261Y-89331309D01*
X135052261Y-89573214D01*
X135082500Y-89633690D01*
X135112738Y-89663928D01*
X135173214Y-89694166D01*
X135263928Y-89694166D01*
X135324404Y-89663928D01*
X135354642Y-89633690D01*
X135384880Y-89573214D01*
X135384880Y-89331309D01*
X135112738Y-89936071D02*
X135082500Y-89966309D01*
X135052261Y-90026785D01*
X135052261Y-90177976D01*
X135082500Y-90238452D01*
X135112738Y-90268690D01*
X135173214Y-90298928D01*
X135233690Y-90298928D01*
X135324404Y-90268690D01*
X135687261Y-89905833D01*
X135687261Y-90298928D01*
%TO.C,R3*%
X127805833Y-91787261D02*
X128017500Y-91484880D01*
X128168690Y-91787261D02*
X128168690Y-91152261D01*
X127926785Y-91152261D01*
X127866309Y-91182500D01*
X127836071Y-91212738D01*
X127805833Y-91273214D01*
X127805833Y-91363928D01*
X127836071Y-91424404D01*
X127866309Y-91454642D01*
X127926785Y-91484880D01*
X128168690Y-91484880D01*
X127594166Y-91152261D02*
X127201071Y-91152261D01*
X127412738Y-91394166D01*
X127322023Y-91394166D01*
X127261547Y-91424404D01*
X127231309Y-91454642D01*
X127201071Y-91515119D01*
X127201071Y-91666309D01*
X127231309Y-91726785D01*
X127261547Y-91757023D01*
X127322023Y-91787261D01*
X127503452Y-91787261D01*
X127563928Y-91757023D01*
X127594166Y-91726785D01*
%TO.C,C6*%
X134126785Y-92894166D02*
X134157023Y-92863928D01*
X134187261Y-92773214D01*
X134187261Y-92712738D01*
X134157023Y-92622023D01*
X134096547Y-92561547D01*
X134036071Y-92531309D01*
X133915119Y-92501071D01*
X133824404Y-92501071D01*
X133703452Y-92531309D01*
X133642976Y-92561547D01*
X133582500Y-92622023D01*
X133552261Y-92712738D01*
X133552261Y-92773214D01*
X133582500Y-92863928D01*
X133612738Y-92894166D01*
X133552261Y-93438452D02*
X133552261Y-93317500D01*
X133582500Y-93257023D01*
X133612738Y-93226785D01*
X133703452Y-93166309D01*
X133824404Y-93136071D01*
X134066309Y-93136071D01*
X134126785Y-93166309D01*
X134157023Y-93196547D01*
X134187261Y-93257023D01*
X134187261Y-93377976D01*
X134157023Y-93438452D01*
X134126785Y-93468690D01*
X134066309Y-93498928D01*
X133915119Y-93498928D01*
X133854642Y-93468690D01*
X133824404Y-93438452D01*
X133794166Y-93377976D01*
X133794166Y-93257023D01*
X133824404Y-93196547D01*
X133854642Y-93166309D01*
X133915119Y-93136071D01*
%TO.C,C12*%
X144826571Y-89781428D02*
X144850761Y-89805619D01*
X144923333Y-89829809D01*
X144971714Y-89829809D01*
X145044285Y-89805619D01*
X145092666Y-89757238D01*
X145116857Y-89708857D01*
X145141047Y-89612095D01*
X145141047Y-89539523D01*
X145116857Y-89442761D01*
X145092666Y-89394380D01*
X145044285Y-89346000D01*
X144971714Y-89321809D01*
X144923333Y-89321809D01*
X144850761Y-89346000D01*
X144826571Y-89370190D01*
X144342761Y-89829809D02*
X144633047Y-89829809D01*
X144487904Y-89829809D02*
X144487904Y-89321809D01*
X144536285Y-89394380D01*
X144584666Y-89442761D01*
X144633047Y-89466952D01*
X144149238Y-89370190D02*
X144125047Y-89346000D01*
X144076666Y-89321809D01*
X143955714Y-89321809D01*
X143907333Y-89346000D01*
X143883142Y-89370190D01*
X143858952Y-89418571D01*
X143858952Y-89466952D01*
X143883142Y-89539523D01*
X144173428Y-89829809D01*
X143858952Y-89829809D01*
%TO.C,C7*%
X132526785Y-90178331D02*
X132557023Y-90148093D01*
X132587261Y-90057379D01*
X132587261Y-89996903D01*
X132557023Y-89906188D01*
X132496547Y-89845712D01*
X132436071Y-89815474D01*
X132315119Y-89785236D01*
X132224404Y-89785236D01*
X132103452Y-89815474D01*
X132042976Y-89845712D01*
X131982500Y-89906188D01*
X131952261Y-89996903D01*
X131952261Y-90057379D01*
X131982500Y-90148093D01*
X132012738Y-90178331D01*
X131952261Y-90389998D02*
X131952261Y-90813331D01*
X132587261Y-90541188D01*
%TO.C,TP1*%
X131961571Y-97882714D02*
X131526142Y-97882714D01*
X131743857Y-98644714D02*
X131743857Y-97882714D01*
X131272142Y-98644714D02*
X131272142Y-97882714D01*
X130981857Y-97882714D01*
X130909285Y-97919000D01*
X130873000Y-97955285D01*
X130836714Y-98027857D01*
X130836714Y-98136714D01*
X130873000Y-98209285D01*
X130909285Y-98245571D01*
X130981857Y-98281857D01*
X131272142Y-98281857D01*
X130111000Y-98644714D02*
X130546428Y-98644714D01*
X130328714Y-98644714D02*
X130328714Y-97882714D01*
X130401285Y-97991571D01*
X130473857Y-98064142D01*
X130546428Y-98100428D01*
%TO.C,R10*%
X142087261Y-102391785D02*
X141784880Y-102180119D01*
X142087261Y-102028928D02*
X141452261Y-102028928D01*
X141452261Y-102270833D01*
X141482500Y-102331309D01*
X141512738Y-102361547D01*
X141573214Y-102391785D01*
X141663928Y-102391785D01*
X141724404Y-102361547D01*
X141754642Y-102331309D01*
X141784880Y-102270833D01*
X141784880Y-102028928D01*
X142087261Y-102996547D02*
X142087261Y-102633690D01*
X142087261Y-102815119D02*
X141452261Y-102815119D01*
X141542976Y-102754642D01*
X141603452Y-102694166D01*
X141633690Y-102633690D01*
X141452261Y-103389642D02*
X141452261Y-103450119D01*
X141482500Y-103510595D01*
X141512738Y-103540833D01*
X141573214Y-103571071D01*
X141694166Y-103601309D01*
X141845357Y-103601309D01*
X141966309Y-103571071D01*
X142026785Y-103540833D01*
X142057023Y-103510595D01*
X142087261Y-103450119D01*
X142087261Y-103389642D01*
X142057023Y-103329166D01*
X142026785Y-103298928D01*
X141966309Y-103268690D01*
X141845357Y-103238452D01*
X141694166Y-103238452D01*
X141573214Y-103268690D01*
X141512738Y-103298928D01*
X141482500Y-103329166D01*
X141452261Y-103389642D01*
%TO.C,TP7*%
X143061571Y-84482714D02*
X142626142Y-84482714D01*
X142843857Y-85244714D02*
X142843857Y-84482714D01*
X142372142Y-85244714D02*
X142372142Y-84482714D01*
X142081857Y-84482714D01*
X142009285Y-84519000D01*
X141973000Y-84555285D01*
X141936714Y-84627857D01*
X141936714Y-84736714D01*
X141973000Y-84809285D01*
X142009285Y-84845571D01*
X142081857Y-84881857D01*
X142372142Y-84881857D01*
X141682714Y-84482714D02*
X141174714Y-84482714D01*
X141501285Y-85244714D01*
D12*
%TO.C,IC2*%
X133439761Y-82474523D02*
X133439761Y-81204523D01*
X132109285Y-82353571D02*
X132169761Y-82414047D01*
X132351190Y-82474523D01*
X132472142Y-82474523D01*
X132653571Y-82414047D01*
X132774523Y-82293095D01*
X132835000Y-82172142D01*
X132895476Y-81930238D01*
X132895476Y-81748809D01*
X132835000Y-81506904D01*
X132774523Y-81385952D01*
X132653571Y-81265000D01*
X132472142Y-81204523D01*
X132351190Y-81204523D01*
X132169761Y-81265000D01*
X132109285Y-81325476D01*
X131625476Y-81325476D02*
X131565000Y-81265000D01*
X131444047Y-81204523D01*
X131141666Y-81204523D01*
X131020714Y-81265000D01*
X130960238Y-81325476D01*
X130899761Y-81446428D01*
X130899761Y-81567380D01*
X130960238Y-81748809D01*
X131685952Y-82474523D01*
X130899761Y-82474523D01*
D11*
%TO.C,R9*%
X135405833Y-96887261D02*
X135617500Y-96584880D01*
X135768690Y-96887261D02*
X135768690Y-96252261D01*
X135526785Y-96252261D01*
X135466309Y-96282500D01*
X135436071Y-96312738D01*
X135405833Y-96373214D01*
X135405833Y-96463928D01*
X135436071Y-96524404D01*
X135466309Y-96554642D01*
X135526785Y-96584880D01*
X135768690Y-96584880D01*
X135103452Y-96887261D02*
X134982500Y-96887261D01*
X134922023Y-96857023D01*
X134891785Y-96826785D01*
X134831309Y-96736071D01*
X134801071Y-96615119D01*
X134801071Y-96373214D01*
X134831309Y-96312738D01*
X134861547Y-96282500D01*
X134922023Y-96252261D01*
X135042976Y-96252261D01*
X135103452Y-96282500D01*
X135133690Y-96312738D01*
X135163928Y-96373214D01*
X135163928Y-96524404D01*
X135133690Y-96584880D01*
X135103452Y-96615119D01*
X135042976Y-96645357D01*
X134922023Y-96645357D01*
X134861547Y-96615119D01*
X134831309Y-96584880D01*
X134801071Y-96524404D01*
%TO.C,C16*%
X144926785Y-87491785D02*
X144957023Y-87461547D01*
X144987261Y-87370833D01*
X144987261Y-87310357D01*
X144957023Y-87219642D01*
X144896547Y-87159166D01*
X144836071Y-87128928D01*
X144715119Y-87098690D01*
X144624404Y-87098690D01*
X144503452Y-87128928D01*
X144442976Y-87159166D01*
X144382500Y-87219642D01*
X144352261Y-87310357D01*
X144352261Y-87370833D01*
X144382500Y-87461547D01*
X144412738Y-87491785D01*
X144987261Y-88096547D02*
X144987261Y-87733690D01*
X144987261Y-87915119D02*
X144352261Y-87915119D01*
X144442976Y-87854642D01*
X144503452Y-87794166D01*
X144533690Y-87733690D01*
X144352261Y-88640833D02*
X144352261Y-88519880D01*
X144382500Y-88459404D01*
X144412738Y-88429166D01*
X144503452Y-88368690D01*
X144624404Y-88338452D01*
X144866309Y-88338452D01*
X144926785Y-88368690D01*
X144957023Y-88398928D01*
X144987261Y-88459404D01*
X144987261Y-88580357D01*
X144957023Y-88640833D01*
X144926785Y-88671071D01*
X144866309Y-88701309D01*
X144715119Y-88701309D01*
X144654642Y-88671071D01*
X144624404Y-88640833D01*
X144594166Y-88580357D01*
X144594166Y-88459404D01*
X144624404Y-88398928D01*
X144654642Y-88368690D01*
X144715119Y-88338452D01*
%TO.C,R7*%
X138487261Y-96094166D02*
X138184880Y-95882500D01*
X138487261Y-95731309D02*
X137852261Y-95731309D01*
X137852261Y-95973214D01*
X137882500Y-96033690D01*
X137912738Y-96063928D01*
X137973214Y-96094166D01*
X138063928Y-96094166D01*
X138124404Y-96063928D01*
X138154642Y-96033690D01*
X138184880Y-95973214D01*
X138184880Y-95731309D01*
X137852261Y-96305833D02*
X137852261Y-96729166D01*
X138487261Y-96457023D01*
D13*
%TO.C,R2*%
X136020000Y-89632379D02*
X136020000Y-89967621D01*
X136780000Y-89632379D02*
X136780000Y-89967621D01*
%TO.C,R3*%
X127929621Y-89320000D02*
X127594379Y-89320000D01*
X127929621Y-90080000D02*
X127594379Y-90080000D01*
%TO.C,C6*%
X134040000Y-91215835D02*
X134040000Y-90984165D01*
X134760000Y-91215835D02*
X134760000Y-90984165D01*
%TO.C,C12*%
X142484165Y-90360000D02*
X142715835Y-90360000D01*
X142484165Y-89640000D02*
X142715835Y-89640000D01*
%TO.C,C7*%
X130902000Y-90284165D02*
X130902000Y-90515835D01*
X131622000Y-90284165D02*
X131622000Y-90515835D01*
%TO.C,TP1*%
X132050000Y-95750000D02*
X130150000Y-95750000D01*
X132050000Y-97650000D02*
X132050000Y-95750000D01*
X130150000Y-97650000D02*
X132050000Y-97650000D01*
X130150000Y-95750000D02*
X130150000Y-97650000D01*
%TO.C,R10*%
X140220000Y-102632379D02*
X140220000Y-102967621D01*
X140980000Y-102632379D02*
X140980000Y-102967621D01*
%TO.C,TP7*%
X142950000Y-83950000D02*
X142950000Y-82050000D01*
X142950000Y-82050000D02*
X141050000Y-82050000D01*
X141050000Y-83950000D02*
X142950000Y-83950000D01*
X141050000Y-82050000D02*
X141050000Y-83950000D01*
D14*
%TO.C,IC2*%
X130512000Y-83100000D02*
X130512000Y-88100000D01*
X134212000Y-83100000D02*
X130512000Y-83100000D01*
X130512000Y-88100000D02*
X134212000Y-88100000D01*
X134212000Y-88100000D02*
X134212000Y-83100000D01*
X128687000Y-88450000D02*
X130162000Y-88450000D01*
D13*
%TO.C,R9*%
X135132379Y-95980000D02*
X135467621Y-95980000D01*
X135132379Y-95220000D02*
X135467621Y-95220000D01*
%TO.C,C16*%
X143560000Y-88015835D02*
X143560000Y-87784165D01*
X142840000Y-88015835D02*
X142840000Y-87784165D01*
%TO.C,R7*%
X139580000Y-95867621D02*
X139580000Y-95532379D01*
X138820000Y-95867621D02*
X138820000Y-95532379D01*
%TD*%
M02*
