%TF.GenerationSoftware,KiCad,Pcbnew,(6.0.8)*%
%TF.CreationDate,2023-01-31T16:58:12-08:00*%
%TF.ProjectId,Microwave Sensor v2,4d696372-6f77-4617-9665-2053656e736f,rev?*%
%TF.SameCoordinates,Original*%
%TF.FileFunction,Copper,L3,Inr*%
%TF.FilePolarity,Positive*%
%FSLAX46Y46*%
G04 Gerber Fmt 4.6, Leading zero omitted, Abs format (unit mm)*
G04 Created by KiCad (PCBNEW (6.0.8)) date 2023-01-31 16:58:12*
%MOMM*%
%LPD*%
G01*
G04 APERTURE LIST*
%TA.AperFunction,ComponentPad*%
%ADD10R,1.700000X1.700000*%
%TD*%
%TA.AperFunction,ComponentPad*%
%ADD11O,1.700000X1.700000*%
%TD*%
%TA.AperFunction,ViaPad*%
%ADD12C,0.381000*%
%TD*%
%TA.AperFunction,ViaPad*%
%ADD13C,0.762000*%
%TD*%
G04 APERTURE END LIST*
D10*
%TO.N,Net-(J4-Pad1)*%
%TO.C,J4*%
X140475000Y-105700000D03*
D11*
%TO.N,Net-(J4-Pad2)*%
X137935000Y-105700000D03*
%TD*%
D10*
%TO.N,Net-(IC2-Pad5)*%
%TO.C,J2*%
X124100000Y-87000000D03*
D11*
%TO.N,Net-(IC2-Pad6)*%
X124100000Y-84460000D03*
%TO.N,Net-(IC2-Pad7)*%
X124100000Y-81920000D03*
%TD*%
D10*
%TO.N,Net-(J3-Pad1)*%
%TO.C,J3*%
X151100000Y-100000000D03*
D11*
%TO.N,Net-(J3-Pad2)*%
X151100000Y-102540000D03*
%TO.N,Net-(J3-Pad3)*%
X151100000Y-105080000D03*
%TD*%
D10*
%TO.N,Net-(FB1-Pad1)*%
%TO.C,J1*%
X125325000Y-98750000D03*
D11*
%TO.N,GND*%
X125325000Y-101290000D03*
%TD*%
D12*
%TO.N,*%
X132900000Y-98700000D03*
%TO.N,GND*%
X137200000Y-93000000D03*
X139600000Y-81683750D03*
X144976859Y-92975000D03*
X137300000Y-91200000D03*
X143975000Y-95500000D03*
X135300000Y-89200000D03*
X145376859Y-93575000D03*
X142975000Y-104100000D03*
X142300000Y-96800000D03*
X133900000Y-99900000D03*
X148575000Y-98900000D03*
X132600000Y-101300000D03*
D13*
X135262000Y-82200000D03*
D12*
X139500000Y-97300000D03*
X137476859Y-95375000D03*
X129800000Y-94500000D03*
X132800000Y-99700000D03*
D13*
X129362000Y-82200000D03*
D12*
X145875000Y-100300000D03*
X147776859Y-95575000D03*
X141200000Y-95500000D03*
X141800000Y-87700000D03*
D13*
X135600000Y-93000000D03*
D12*
X137100000Y-93500000D03*
X144876859Y-91175000D03*
X144876859Y-95375000D03*
X146100000Y-88100000D03*
D13*
X131300000Y-92700000D03*
X135500000Y-101600000D03*
D12*
X132876859Y-94375000D03*
X143200000Y-86100000D03*
X139375000Y-93500000D03*
X145076859Y-92175000D03*
X131200000Y-94500000D03*
D13*
%TO.N,/VinF*%
X129662000Y-89800000D03*
D12*
%TO.N,/Vdd*%
X133700000Y-95600000D03*
X143676859Y-91075000D03*
X142975000Y-94100000D03*
X136876859Y-94375000D03*
X139000000Y-98100000D03*
X139000000Y-103400000D03*
X145076859Y-94475000D03*
D13*
X133562000Y-89200000D03*
D12*
X140375000Y-94100000D03*
D13*
X135000000Y-97600000D03*
D12*
%TO.N,Net-(C12-Pad1)*%
X141775000Y-92600000D03*
%TO.N,/IFQAI*%
X142875000Y-92500000D03*
D13*
%TO.N,Net-(IC2-Pad12)*%
X132800000Y-84600000D03*
D12*
X139075000Y-91100000D03*
%TO.N,Net-(J3-Pad1)*%
X142775000Y-95500000D03*
%TO.N,Net-(IC2-Pad11)*%
X139475000Y-92500000D03*
X139000000Y-85700000D03*
%TO.N,Net-(IC2-Pad10)*%
X140175000Y-92500000D03*
%TO.N,Net-(J3-Pad2)*%
X141875000Y-93700000D03*
%TO.N,Net-(J3-Pad3)*%
X140700000Y-96500000D03*
%TO.N,Net-(J4-Pad2)*%
X137900000Y-97700000D03*
%TO.N,Net-(R9-Pad2)*%
X137100000Y-96500000D03*
X137000000Y-103000000D03*
%TO.N,Net-(R10-Pad1)*%
X139600000Y-100700000D03*
%TO.N,Net-(TP4-Pad1)*%
X138275000Y-91100000D03*
D13*
X132900000Y-86300000D03*
%TD*%
%TA.AperFunction,Conductor*%
%TO.N,/Vdd*%
G36*
X153440621Y-79901502D02*
G01*
X153487114Y-79955158D01*
X153498500Y-80007500D01*
X153498500Y-107416500D01*
X153478498Y-107484621D01*
X153424842Y-107531114D01*
X153372500Y-107542500D01*
X121907500Y-107542500D01*
X121839379Y-107522498D01*
X121792886Y-107468842D01*
X121781500Y-107416500D01*
X121781500Y-105700000D01*
X136698796Y-105700000D01*
X136717577Y-105914665D01*
X136773348Y-106122807D01*
X136775670Y-106127787D01*
X136775671Y-106127789D01*
X136862090Y-106313115D01*
X136862093Y-106313120D01*
X136864416Y-106318102D01*
X136867570Y-106322606D01*
X136867573Y-106322611D01*
X136904466Y-106375299D01*
X136988013Y-106494617D01*
X137140383Y-106646987D01*
X137144891Y-106650144D01*
X137144894Y-106650146D01*
X137310070Y-106765803D01*
X137316898Y-106770584D01*
X137321880Y-106772907D01*
X137321885Y-106772910D01*
X137503336Y-106857522D01*
X137512193Y-106861652D01*
X137517501Y-106863074D01*
X137517503Y-106863075D01*
X137715020Y-106915999D01*
X137715022Y-106915999D01*
X137720335Y-106917423D01*
X137935000Y-106936204D01*
X138149665Y-106917423D01*
X138154978Y-106915999D01*
X138154980Y-106915999D01*
X138352497Y-106863075D01*
X138352499Y-106863074D01*
X138357807Y-106861652D01*
X138366664Y-106857522D01*
X138548115Y-106772910D01*
X138548120Y-106772907D01*
X138553102Y-106770584D01*
X138559930Y-106765803D01*
X138725106Y-106650146D01*
X138725109Y-106650144D01*
X138729617Y-106646987D01*
X138881987Y-106494617D01*
X139005584Y-106318102D01*
X139007908Y-106313118D01*
X139008381Y-106312299D01*
X139059764Y-106263306D01*
X139129477Y-106249870D01*
X139195388Y-106276256D01*
X139236570Y-106334089D01*
X139243500Y-106375299D01*
X139243500Y-106586158D01*
X139244170Y-106590706D01*
X139244170Y-106590713D01*
X139253112Y-106651459D01*
X139254538Y-106661144D01*
X139310513Y-106775151D01*
X139400399Y-106864880D01*
X139514503Y-106920655D01*
X139547284Y-106925437D01*
X139584316Y-106930840D01*
X139584320Y-106930840D01*
X139588842Y-106931500D01*
X141361158Y-106931500D01*
X141365706Y-106930830D01*
X141365713Y-106930830D01*
X141426459Y-106921888D01*
X141426461Y-106921887D01*
X141436144Y-106920462D01*
X141445234Y-106915999D01*
X141540803Y-106869077D01*
X141540804Y-106869076D01*
X141550151Y-106864487D01*
X141639880Y-106774601D01*
X141695655Y-106660497D01*
X141700437Y-106627716D01*
X141705840Y-106590684D01*
X141705840Y-106590680D01*
X141706500Y-106586158D01*
X141706500Y-105080000D01*
X149863796Y-105080000D01*
X149882577Y-105294665D01*
X149938348Y-105502807D01*
X149940670Y-105507787D01*
X149940671Y-105507789D01*
X150027090Y-105693115D01*
X150027093Y-105693120D01*
X150029416Y-105698102D01*
X150032572Y-105702609D01*
X150032573Y-105702611D01*
X150034579Y-105705475D01*
X150153013Y-105874617D01*
X150305383Y-106026987D01*
X150309891Y-106030144D01*
X150309894Y-106030146D01*
X150442228Y-106122807D01*
X150481898Y-106150584D01*
X150486880Y-106152907D01*
X150486885Y-106152910D01*
X150672211Y-106239329D01*
X150677193Y-106241652D01*
X150682501Y-106243074D01*
X150682503Y-106243075D01*
X150880020Y-106295999D01*
X150880022Y-106295999D01*
X150885335Y-106297423D01*
X151100000Y-106316204D01*
X151314665Y-106297423D01*
X151319978Y-106295999D01*
X151319980Y-106295999D01*
X151517497Y-106243075D01*
X151517499Y-106243074D01*
X151522807Y-106241652D01*
X151527789Y-106239329D01*
X151713115Y-106152910D01*
X151713120Y-106152907D01*
X151718102Y-106150584D01*
X151757772Y-106122807D01*
X151890106Y-106030146D01*
X151890109Y-106030144D01*
X151894617Y-106026987D01*
X152046987Y-105874617D01*
X152165422Y-105705475D01*
X152167427Y-105702611D01*
X152167428Y-105702609D01*
X152170584Y-105698102D01*
X152172907Y-105693120D01*
X152172910Y-105693115D01*
X152259329Y-105507789D01*
X152259330Y-105507787D01*
X152261652Y-105502807D01*
X152317423Y-105294665D01*
X152336204Y-105080000D01*
X152317423Y-104865335D01*
X152286480Y-104749854D01*
X152263075Y-104662503D01*
X152263074Y-104662501D01*
X152261652Y-104657193D01*
X152259329Y-104652211D01*
X152172910Y-104466885D01*
X152172907Y-104466880D01*
X152170584Y-104461898D01*
X152167427Y-104457389D01*
X152050146Y-104289894D01*
X152050144Y-104289891D01*
X152046987Y-104285383D01*
X151894617Y-104133013D01*
X151890109Y-104129856D01*
X151890106Y-104129854D01*
X151722611Y-104012573D01*
X151722609Y-104012572D01*
X151718102Y-104009416D01*
X151713120Y-104007093D01*
X151713115Y-104007090D01*
X151535346Y-103924195D01*
X151482061Y-103877277D01*
X151462600Y-103809000D01*
X151483142Y-103741040D01*
X151535346Y-103695805D01*
X151713115Y-103612910D01*
X151713120Y-103612907D01*
X151718102Y-103610584D01*
X151737218Y-103597199D01*
X151890106Y-103490146D01*
X151890109Y-103490144D01*
X151894617Y-103486987D01*
X152046987Y-103334617D01*
X152074713Y-103295021D01*
X152167427Y-103162611D01*
X152167428Y-103162609D01*
X152170584Y-103158102D01*
X152172907Y-103153120D01*
X152172910Y-103153115D01*
X152259329Y-102967789D01*
X152259330Y-102967787D01*
X152261652Y-102962807D01*
X152289503Y-102858867D01*
X152315999Y-102759980D01*
X152315999Y-102759978D01*
X152317423Y-102754665D01*
X152336204Y-102540000D01*
X152317423Y-102325335D01*
X152315999Y-102320020D01*
X152263075Y-102122503D01*
X152263074Y-102122501D01*
X152261652Y-102117193D01*
X152252742Y-102098086D01*
X152172910Y-101926885D01*
X152172907Y-101926880D01*
X152170584Y-101921898D01*
X152157432Y-101903115D01*
X152050146Y-101749894D01*
X152050144Y-101749891D01*
X152046987Y-101745383D01*
X151894617Y-101593013D01*
X151890109Y-101589856D01*
X151890106Y-101589854D01*
X151768443Y-101504665D01*
X151718102Y-101469416D01*
X151713118Y-101467092D01*
X151712299Y-101466619D01*
X151663306Y-101415236D01*
X151649870Y-101345523D01*
X151676256Y-101279612D01*
X151734089Y-101238430D01*
X151775299Y-101231500D01*
X151986158Y-101231500D01*
X151990706Y-101230830D01*
X151990713Y-101230830D01*
X152051459Y-101221888D01*
X152051461Y-101221887D01*
X152061144Y-101220462D01*
X152069933Y-101216147D01*
X152165803Y-101169077D01*
X152165804Y-101169076D01*
X152175151Y-101164487D01*
X152264880Y-101074601D01*
X152320655Y-100960497D01*
X152330641Y-100892045D01*
X152330840Y-100890684D01*
X152330840Y-100890680D01*
X152331500Y-100886158D01*
X152331500Y-99113842D01*
X152330634Y-99107955D01*
X152321888Y-99048541D01*
X152321887Y-99048539D01*
X152320462Y-99038856D01*
X152295723Y-98988468D01*
X152269077Y-98934197D01*
X152269076Y-98934196D01*
X152264487Y-98924849D01*
X152174601Y-98835120D01*
X152060497Y-98779345D01*
X152027716Y-98774563D01*
X151990684Y-98769160D01*
X151990680Y-98769160D01*
X151986158Y-98768500D01*
X150213842Y-98768500D01*
X150209294Y-98769170D01*
X150209287Y-98769170D01*
X150148541Y-98778112D01*
X150148539Y-98778113D01*
X150138856Y-98779538D01*
X150130068Y-98783853D01*
X150130067Y-98783853D01*
X150034197Y-98830923D01*
X150034196Y-98830924D01*
X150024849Y-98835513D01*
X149935120Y-98925399D01*
X149879345Y-99039503D01*
X149877933Y-99049183D01*
X149869165Y-99109287D01*
X149868500Y-99113842D01*
X149868500Y-100886158D01*
X149869170Y-100890706D01*
X149869170Y-100890713D01*
X149878112Y-100951459D01*
X149879538Y-100961144D01*
X149883853Y-100969932D01*
X149883853Y-100969933D01*
X149908024Y-101019162D01*
X149935513Y-101075151D01*
X150025399Y-101164880D01*
X150139503Y-101220655D01*
X150172284Y-101225437D01*
X150209316Y-101230840D01*
X150209320Y-101230840D01*
X150213842Y-101231500D01*
X150424701Y-101231500D01*
X150492822Y-101251502D01*
X150539315Y-101305158D01*
X150549419Y-101375432D01*
X150519925Y-101440012D01*
X150487701Y-101466619D01*
X150486882Y-101467092D01*
X150481898Y-101469416D01*
X150431557Y-101504665D01*
X150309894Y-101589854D01*
X150309891Y-101589856D01*
X150305383Y-101593013D01*
X150153013Y-101745383D01*
X150149856Y-101749891D01*
X150149854Y-101749894D01*
X150042568Y-101903115D01*
X150029416Y-101921898D01*
X150027093Y-101926880D01*
X150027090Y-101926885D01*
X149947258Y-102098086D01*
X149938348Y-102117193D01*
X149936926Y-102122501D01*
X149936925Y-102122503D01*
X149884001Y-102320020D01*
X149882577Y-102325335D01*
X149863796Y-102540000D01*
X149882577Y-102754665D01*
X149884001Y-102759978D01*
X149884001Y-102759980D01*
X149910498Y-102858867D01*
X149938348Y-102962807D01*
X149940670Y-102967787D01*
X149940671Y-102967789D01*
X150027090Y-103153115D01*
X150027093Y-103153120D01*
X150029416Y-103158102D01*
X150032572Y-103162609D01*
X150032573Y-103162611D01*
X150125288Y-103295021D01*
X150153013Y-103334617D01*
X150305383Y-103486987D01*
X150309891Y-103490144D01*
X150309894Y-103490146D01*
X150462782Y-103597199D01*
X150481898Y-103610584D01*
X150486880Y-103612907D01*
X150486885Y-103612910D01*
X150664654Y-103695805D01*
X150717939Y-103742723D01*
X150737400Y-103811000D01*
X150716858Y-103878960D01*
X150664654Y-103924195D01*
X150486885Y-104007090D01*
X150486880Y-104007093D01*
X150481898Y-104009416D01*
X150477391Y-104012572D01*
X150477389Y-104012573D01*
X150309894Y-104129854D01*
X150309891Y-104129856D01*
X150305383Y-104133013D01*
X150153013Y-104285383D01*
X150149856Y-104289891D01*
X150149854Y-104289894D01*
X150032573Y-104457389D01*
X150029416Y-104461898D01*
X150027093Y-104466880D01*
X150027090Y-104466885D01*
X149940671Y-104652211D01*
X149938348Y-104657193D01*
X149936926Y-104662501D01*
X149936925Y-104662503D01*
X149913520Y-104749854D01*
X149882577Y-104865335D01*
X149863796Y-105080000D01*
X141706500Y-105080000D01*
X141706500Y-104813842D01*
X141696983Y-104749183D01*
X141696888Y-104748541D01*
X141696887Y-104748539D01*
X141695462Y-104738856D01*
X141665061Y-104676936D01*
X141644077Y-104634197D01*
X141644076Y-104634196D01*
X141639487Y-104624849D01*
X141549601Y-104535120D01*
X141435497Y-104479345D01*
X141402716Y-104474563D01*
X141365684Y-104469160D01*
X141365680Y-104469160D01*
X141361158Y-104468500D01*
X139588842Y-104468500D01*
X139584294Y-104469170D01*
X139584287Y-104469170D01*
X139523541Y-104478112D01*
X139523539Y-104478113D01*
X139513856Y-104479538D01*
X139505068Y-104483853D01*
X139505067Y-104483853D01*
X139409197Y-104530923D01*
X139409196Y-104530924D01*
X139399849Y-104535513D01*
X139392492Y-104542883D01*
X139332679Y-104602801D01*
X139310120Y-104625399D01*
X139254345Y-104739503D01*
X139252933Y-104749183D01*
X139244165Y-104809287D01*
X139243500Y-104813842D01*
X139243500Y-105024701D01*
X139223498Y-105092822D01*
X139169842Y-105139315D01*
X139099568Y-105149419D01*
X139034988Y-105119925D01*
X139008381Y-105087701D01*
X139007908Y-105086882D01*
X139005584Y-105081898D01*
X138881987Y-104905383D01*
X138729617Y-104753013D01*
X138725109Y-104749856D01*
X138725106Y-104749854D01*
X138557611Y-104632573D01*
X138557609Y-104632572D01*
X138553102Y-104629416D01*
X138548120Y-104627093D01*
X138548115Y-104627090D01*
X138362789Y-104540671D01*
X138362787Y-104540670D01*
X138357807Y-104538348D01*
X138352499Y-104536926D01*
X138352497Y-104536925D01*
X138154980Y-104484001D01*
X138154978Y-104484001D01*
X138149665Y-104482577D01*
X137935000Y-104463796D01*
X137720335Y-104482577D01*
X137715022Y-104484001D01*
X137715020Y-104484001D01*
X137517503Y-104536925D01*
X137517501Y-104536926D01*
X137512193Y-104538348D01*
X137507213Y-104540670D01*
X137507211Y-104540671D01*
X137321885Y-104627090D01*
X137321880Y-104627093D01*
X137316898Y-104629416D01*
X137312391Y-104632572D01*
X137312389Y-104632573D01*
X137144894Y-104749854D01*
X137144891Y-104749856D01*
X137140383Y-104753013D01*
X136988013Y-104905383D01*
X136984856Y-104909891D01*
X136984854Y-104909894D01*
X136867573Y-105077389D01*
X136864416Y-105081898D01*
X136862093Y-105086880D01*
X136862090Y-105086885D01*
X136832930Y-105149419D01*
X136773348Y-105277193D01*
X136717577Y-105485335D01*
X136698796Y-105700000D01*
X121781500Y-105700000D01*
X121781500Y-104100000D01*
X142398064Y-104100000D01*
X142417723Y-104249322D01*
X142475359Y-104388468D01*
X142567045Y-104507955D01*
X142686532Y-104599641D01*
X142825678Y-104657277D01*
X142975000Y-104676936D01*
X143124322Y-104657277D01*
X143263468Y-104599641D01*
X143382955Y-104507955D01*
X143474641Y-104388468D01*
X143532277Y-104249322D01*
X143551936Y-104100000D01*
X143532277Y-103950678D01*
X143474641Y-103811532D01*
X143382955Y-103692045D01*
X143263468Y-103600359D01*
X143124322Y-103542723D01*
X142975000Y-103523064D01*
X142825678Y-103542723D01*
X142686532Y-103600359D01*
X142567045Y-103692045D01*
X142475359Y-103811532D01*
X142417723Y-103950678D01*
X142398064Y-104100000D01*
X121781500Y-104100000D01*
X121781500Y-103000000D01*
X136423064Y-103000000D01*
X136442723Y-103149322D01*
X136500359Y-103288468D01*
X136592045Y-103407955D01*
X136711532Y-103499641D01*
X136850678Y-103557277D01*
X137000000Y-103576936D01*
X137149322Y-103557277D01*
X137288468Y-103499641D01*
X137407955Y-103407955D01*
X137499641Y-103288468D01*
X137557277Y-103149322D01*
X137576936Y-103000000D01*
X137557277Y-102850678D01*
X137499641Y-102711532D01*
X137407955Y-102592045D01*
X137288468Y-102500359D01*
X137149322Y-102442723D01*
X137000000Y-102423064D01*
X136850678Y-102442723D01*
X136711532Y-102500359D01*
X136592045Y-102592045D01*
X136500359Y-102711532D01*
X136442723Y-102850678D01*
X136423064Y-103000000D01*
X121781500Y-103000000D01*
X121781500Y-101290000D01*
X124088796Y-101290000D01*
X124107577Y-101504665D01*
X124109001Y-101509978D01*
X124109001Y-101509980D01*
X124132067Y-101596062D01*
X124163348Y-101712807D01*
X124165670Y-101717787D01*
X124165671Y-101717789D01*
X124252090Y-101903115D01*
X124252093Y-101903120D01*
X124254416Y-101908102D01*
X124257572Y-101912609D01*
X124257573Y-101912611D01*
X124366504Y-102068180D01*
X124378013Y-102084617D01*
X124530383Y-102236987D01*
X124534891Y-102240144D01*
X124534894Y-102240146D01*
X124702389Y-102357427D01*
X124706898Y-102360584D01*
X124711880Y-102362907D01*
X124711885Y-102362910D01*
X124897211Y-102449329D01*
X124902193Y-102451652D01*
X124907501Y-102453074D01*
X124907503Y-102453075D01*
X125105020Y-102505999D01*
X125105022Y-102505999D01*
X125110335Y-102507423D01*
X125325000Y-102526204D01*
X125539665Y-102507423D01*
X125544978Y-102505999D01*
X125544980Y-102505999D01*
X125742497Y-102453075D01*
X125742499Y-102453074D01*
X125747807Y-102451652D01*
X125752789Y-102449329D01*
X125938115Y-102362910D01*
X125938120Y-102362907D01*
X125943102Y-102360584D01*
X125947611Y-102357427D01*
X126115106Y-102240146D01*
X126115109Y-102240144D01*
X126119617Y-102236987D01*
X126271987Y-102084617D01*
X126283497Y-102068180D01*
X126392427Y-101912611D01*
X126392428Y-101912609D01*
X126395584Y-101908102D01*
X126397907Y-101903120D01*
X126397910Y-101903115D01*
X126484329Y-101717789D01*
X126484330Y-101717787D01*
X126486652Y-101712807D01*
X126517934Y-101596062D01*
X126540999Y-101509980D01*
X126540999Y-101509978D01*
X126542423Y-101504665D01*
X126560329Y-101300000D01*
X132023064Y-101300000D01*
X132042723Y-101449322D01*
X132100359Y-101588468D01*
X132192045Y-101707955D01*
X132311532Y-101799641D01*
X132450678Y-101857277D01*
X132600000Y-101876936D01*
X132749322Y-101857277D01*
X132888468Y-101799641D01*
X133007955Y-101707955D01*
X133099013Y-101589286D01*
X134732750Y-101589286D01*
X134749443Y-101759536D01*
X134803440Y-101921856D01*
X134807087Y-101927878D01*
X134807088Y-101927880D01*
X134888406Y-102062154D01*
X134888409Y-102062157D01*
X134892056Y-102068180D01*
X135010889Y-102191234D01*
X135154030Y-102284903D01*
X135160634Y-102287359D01*
X135160636Y-102287360D01*
X135307757Y-102342074D01*
X135307759Y-102342074D01*
X135314367Y-102344532D01*
X135393454Y-102355085D01*
X135476949Y-102366226D01*
X135476953Y-102366226D01*
X135483930Y-102367157D01*
X135490941Y-102366519D01*
X135490945Y-102366519D01*
X135647273Y-102352292D01*
X135647275Y-102352292D01*
X135654292Y-102351653D01*
X135660990Y-102349477D01*
X135660993Y-102349476D01*
X135810289Y-102300966D01*
X135810291Y-102300965D01*
X135816985Y-102298790D01*
X135852369Y-102277697D01*
X135957872Y-102214805D01*
X135957874Y-102214804D01*
X135963924Y-102211197D01*
X136087805Y-102093227D01*
X136093526Y-102084617D01*
X136178570Y-101956614D01*
X136182471Y-101950743D01*
X136238669Y-101802801D01*
X136240718Y-101797408D01*
X136240719Y-101797406D01*
X136243218Y-101790826D01*
X136249605Y-101745383D01*
X136266475Y-101625347D01*
X136266475Y-101625344D01*
X136267026Y-101621425D01*
X136267325Y-101600000D01*
X136248256Y-101430000D01*
X136218839Y-101345523D01*
X136194314Y-101275097D01*
X136194313Y-101275095D01*
X136191999Y-101268450D01*
X136173241Y-101238430D01*
X136105081Y-101129352D01*
X136101348Y-101123378D01*
X136091024Y-101112981D01*
X135997857Y-101019162D01*
X135980809Y-101001994D01*
X135900166Y-100950817D01*
X135842316Y-100914104D01*
X135842313Y-100914102D01*
X135836373Y-100910333D01*
X135829740Y-100907971D01*
X135681854Y-100855311D01*
X135681849Y-100855310D01*
X135675219Y-100852949D01*
X135668231Y-100852116D01*
X135668228Y-100852115D01*
X135552655Y-100838334D01*
X135505357Y-100832694D01*
X135498354Y-100833430D01*
X135498353Y-100833430D01*
X135453958Y-100838096D01*
X135335228Y-100850575D01*
X135325071Y-100854033D01*
X135179956Y-100903434D01*
X135179953Y-100903435D01*
X135173289Y-100905704D01*
X135027588Y-100995340D01*
X135022557Y-101000267D01*
X135022554Y-101000269D01*
X134963573Y-101058028D01*
X134905366Y-101115028D01*
X134901547Y-101120953D01*
X134901546Y-101120955D01*
X134873492Y-101164487D01*
X134812698Y-101258820D01*
X134810287Y-101265443D01*
X134810286Y-101265446D01*
X134756600Y-101412947D01*
X134756599Y-101412952D01*
X134754190Y-101419570D01*
X134732750Y-101589286D01*
X133099013Y-101589286D01*
X133099641Y-101588468D01*
X133157277Y-101449322D01*
X133176936Y-101300000D01*
X133157277Y-101150678D01*
X133099641Y-101011532D01*
X133007955Y-100892045D01*
X132888468Y-100800359D01*
X132749322Y-100742723D01*
X132600000Y-100723064D01*
X132450678Y-100742723D01*
X132311532Y-100800359D01*
X132192045Y-100892045D01*
X132100359Y-101011532D01*
X132042723Y-101150678D01*
X132023064Y-101300000D01*
X126560329Y-101300000D01*
X126561204Y-101290000D01*
X126542423Y-101075335D01*
X126497960Y-100909395D01*
X126488075Y-100872503D01*
X126488074Y-100872501D01*
X126486652Y-100867193D01*
X126480010Y-100852949D01*
X126408689Y-100700000D01*
X139023064Y-100700000D01*
X139042723Y-100849322D01*
X139100359Y-100988468D01*
X139192045Y-101107955D01*
X139311532Y-101199641D01*
X139450678Y-101257277D01*
X139600000Y-101276936D01*
X139749322Y-101257277D01*
X139888468Y-101199641D01*
X140007955Y-101107955D01*
X140099641Y-100988468D01*
X140157277Y-100849322D01*
X140176936Y-100700000D01*
X140157277Y-100550678D01*
X140099641Y-100411532D01*
X140014059Y-100300000D01*
X145298064Y-100300000D01*
X145317723Y-100449322D01*
X145375359Y-100588468D01*
X145467045Y-100707955D01*
X145586532Y-100799641D01*
X145725678Y-100857277D01*
X145875000Y-100876936D01*
X146024322Y-100857277D01*
X146163468Y-100799641D01*
X146282955Y-100707955D01*
X146374641Y-100588468D01*
X146432277Y-100449322D01*
X146451936Y-100300000D01*
X146432277Y-100150678D01*
X146374641Y-100011532D01*
X146282955Y-99892045D01*
X146163468Y-99800359D01*
X146024322Y-99742723D01*
X145875000Y-99723064D01*
X145725678Y-99742723D01*
X145586532Y-99800359D01*
X145467045Y-99892045D01*
X145375359Y-100011532D01*
X145317723Y-100150678D01*
X145298064Y-100300000D01*
X140014059Y-100300000D01*
X140007955Y-100292045D01*
X139888468Y-100200359D01*
X139749322Y-100142723D01*
X139600000Y-100123064D01*
X139450678Y-100142723D01*
X139311532Y-100200359D01*
X139192045Y-100292045D01*
X139100359Y-100411532D01*
X139042723Y-100550678D01*
X139023064Y-100700000D01*
X126408689Y-100700000D01*
X126397910Y-100676885D01*
X126397907Y-100676880D01*
X126395584Y-100671898D01*
X126271987Y-100495383D01*
X126119617Y-100343013D01*
X126115109Y-100339856D01*
X126115106Y-100339854D01*
X125947606Y-100222570D01*
X125943102Y-100219416D01*
X125938118Y-100217092D01*
X125937299Y-100216619D01*
X125888306Y-100165236D01*
X125874870Y-100095523D01*
X125901256Y-100029612D01*
X125959089Y-99988430D01*
X126000299Y-99981500D01*
X126211158Y-99981500D01*
X126215706Y-99980830D01*
X126215713Y-99980830D01*
X126276459Y-99971888D01*
X126276461Y-99971887D01*
X126286144Y-99970462D01*
X126294933Y-99966147D01*
X126390803Y-99919077D01*
X126390804Y-99919076D01*
X126400151Y-99914487D01*
X126489880Y-99824601D01*
X126499272Y-99805388D01*
X126526014Y-99750678D01*
X126545655Y-99710497D01*
X126547186Y-99700000D01*
X132223064Y-99700000D01*
X132242723Y-99849322D01*
X132300359Y-99988468D01*
X132392045Y-100107955D01*
X132511532Y-100199641D01*
X132650678Y-100257277D01*
X132800000Y-100276936D01*
X132949322Y-100257277D01*
X133088468Y-100199641D01*
X133198375Y-100115306D01*
X133264595Y-100089705D01*
X133334144Y-100103970D01*
X133384940Y-100153571D01*
X133391487Y-100167048D01*
X133400359Y-100188468D01*
X133492045Y-100307955D01*
X133611532Y-100399641D01*
X133750678Y-100457277D01*
X133900000Y-100476936D01*
X134049322Y-100457277D01*
X134188468Y-100399641D01*
X134307955Y-100307955D01*
X134399641Y-100188468D01*
X134457277Y-100049322D01*
X134476936Y-99900000D01*
X134457277Y-99750678D01*
X134399641Y-99611532D01*
X134307955Y-99492045D01*
X134188468Y-99400359D01*
X134049322Y-99342723D01*
X133900000Y-99323064D01*
X133750678Y-99342723D01*
X133611532Y-99400359D01*
X133513140Y-99475858D01*
X133501625Y-99484694D01*
X133435405Y-99510295D01*
X133365856Y-99496030D01*
X133315060Y-99446429D01*
X133308511Y-99432947D01*
X133302801Y-99419162D01*
X133299641Y-99411532D01*
X133232808Y-99324433D01*
X133207208Y-99258216D01*
X133221472Y-99188668D01*
X133256064Y-99147773D01*
X133307955Y-99107955D01*
X133399641Y-98988468D01*
X133436286Y-98900000D01*
X147998064Y-98900000D01*
X148017723Y-99049322D01*
X148075359Y-99188468D01*
X148167045Y-99307955D01*
X148286532Y-99399641D01*
X148425678Y-99457277D01*
X148575000Y-99476936D01*
X148724322Y-99457277D01*
X148863468Y-99399641D01*
X148982955Y-99307955D01*
X149074641Y-99188468D01*
X149132277Y-99049322D01*
X149151936Y-98900000D01*
X149132277Y-98750678D01*
X149074641Y-98611532D01*
X148982955Y-98492045D01*
X148863468Y-98400359D01*
X148724322Y-98342723D01*
X148575000Y-98323064D01*
X148425678Y-98342723D01*
X148286532Y-98400359D01*
X148167045Y-98492045D01*
X148075359Y-98611532D01*
X148017723Y-98750678D01*
X147998064Y-98900000D01*
X133436286Y-98900000D01*
X133457277Y-98849322D01*
X133476936Y-98700000D01*
X133457277Y-98550678D01*
X133399641Y-98411532D01*
X133307955Y-98292045D01*
X133188468Y-98200359D01*
X133049322Y-98142723D01*
X132900000Y-98123064D01*
X132750678Y-98142723D01*
X132611532Y-98200359D01*
X132492045Y-98292045D01*
X132400359Y-98411532D01*
X132342723Y-98550678D01*
X132323064Y-98700000D01*
X132342723Y-98849322D01*
X132400359Y-98988468D01*
X132467192Y-99075567D01*
X132492792Y-99141784D01*
X132478528Y-99211332D01*
X132443936Y-99252227D01*
X132392045Y-99292045D01*
X132300359Y-99411532D01*
X132242723Y-99550678D01*
X132223064Y-99700000D01*
X126547186Y-99700000D01*
X126550720Y-99675779D01*
X126555840Y-99640684D01*
X126555840Y-99640680D01*
X126556500Y-99636158D01*
X126556500Y-97863842D01*
X126555693Y-97858355D01*
X126546888Y-97798541D01*
X126546887Y-97798539D01*
X126545462Y-97788856D01*
X126505856Y-97708188D01*
X126501836Y-97700000D01*
X137323064Y-97700000D01*
X137342723Y-97849322D01*
X137400359Y-97988468D01*
X137492045Y-98107955D01*
X137611532Y-98199641D01*
X137750678Y-98257277D01*
X137900000Y-98276936D01*
X138049322Y-98257277D01*
X138188468Y-98199641D01*
X138307955Y-98107955D01*
X138399641Y-97988468D01*
X138457277Y-97849322D01*
X138476936Y-97700000D01*
X138457277Y-97550678D01*
X138399641Y-97411532D01*
X138314059Y-97300000D01*
X138923064Y-97300000D01*
X138942723Y-97449322D01*
X139000359Y-97588468D01*
X139092045Y-97707955D01*
X139211532Y-97799641D01*
X139350678Y-97857277D01*
X139500000Y-97876936D01*
X139649322Y-97857277D01*
X139788468Y-97799641D01*
X139907955Y-97707955D01*
X139999641Y-97588468D01*
X140057277Y-97449322D01*
X140076936Y-97300000D01*
X140057277Y-97150678D01*
X139999641Y-97011532D01*
X139907955Y-96892045D01*
X139788468Y-96800359D01*
X139649322Y-96742723D01*
X139500000Y-96723064D01*
X139350678Y-96742723D01*
X139211532Y-96800359D01*
X139092045Y-96892045D01*
X139000359Y-97011532D01*
X138942723Y-97150678D01*
X138923064Y-97300000D01*
X138314059Y-97300000D01*
X138307955Y-97292045D01*
X138188468Y-97200359D01*
X138049322Y-97142723D01*
X137900000Y-97123064D01*
X137750678Y-97142723D01*
X137611532Y-97200359D01*
X137492045Y-97292045D01*
X137400359Y-97411532D01*
X137342723Y-97550678D01*
X137323064Y-97700000D01*
X126501836Y-97700000D01*
X126494077Y-97684197D01*
X126494076Y-97684196D01*
X126489487Y-97674849D01*
X126399601Y-97585120D01*
X126285497Y-97529345D01*
X126252716Y-97524563D01*
X126215684Y-97519160D01*
X126215680Y-97519160D01*
X126211158Y-97518500D01*
X124438842Y-97518500D01*
X124434294Y-97519170D01*
X124434287Y-97519170D01*
X124373541Y-97528112D01*
X124373539Y-97528113D01*
X124363856Y-97529538D01*
X124355068Y-97533853D01*
X124355067Y-97533853D01*
X124259197Y-97580923D01*
X124259196Y-97580924D01*
X124249849Y-97585513D01*
X124160120Y-97675399D01*
X124104345Y-97789503D01*
X124102933Y-97799183D01*
X124094165Y-97859287D01*
X124093500Y-97863842D01*
X124093500Y-99636158D01*
X124094170Y-99640706D01*
X124094170Y-99640713D01*
X124103112Y-99701459D01*
X124104538Y-99711144D01*
X124108853Y-99719932D01*
X124108853Y-99719933D01*
X124150810Y-99805388D01*
X124160513Y-99825151D01*
X124167883Y-99832508D01*
X124234086Y-99898595D01*
X124250399Y-99914880D01*
X124259755Y-99919453D01*
X124259756Y-99919454D01*
X124296635Y-99937480D01*
X124364503Y-99970655D01*
X124397284Y-99975437D01*
X124434316Y-99980840D01*
X124434320Y-99980840D01*
X124438842Y-99981500D01*
X124649701Y-99981500D01*
X124717822Y-100001502D01*
X124764315Y-100055158D01*
X124774419Y-100125432D01*
X124744925Y-100190012D01*
X124712701Y-100216619D01*
X124711882Y-100217092D01*
X124706898Y-100219416D01*
X124702394Y-100222570D01*
X124534894Y-100339854D01*
X124534891Y-100339856D01*
X124530383Y-100343013D01*
X124378013Y-100495383D01*
X124254416Y-100671898D01*
X124252093Y-100676880D01*
X124252090Y-100676885D01*
X124169990Y-100852949D01*
X124163348Y-100867193D01*
X124161926Y-100872501D01*
X124161925Y-100872503D01*
X124152040Y-100909395D01*
X124107577Y-101075335D01*
X124088796Y-101290000D01*
X121781500Y-101290000D01*
X121781500Y-96500000D01*
X136523064Y-96500000D01*
X136542723Y-96649322D01*
X136600359Y-96788468D01*
X136692045Y-96907955D01*
X136811532Y-96999641D01*
X136950678Y-97057277D01*
X137100000Y-97076936D01*
X137249322Y-97057277D01*
X137388468Y-96999641D01*
X137507955Y-96907955D01*
X137599641Y-96788468D01*
X137657277Y-96649322D01*
X137676936Y-96500000D01*
X140123064Y-96500000D01*
X140142723Y-96649322D01*
X140200359Y-96788468D01*
X140292045Y-96907955D01*
X140411532Y-96999641D01*
X140550678Y-97057277D01*
X140700000Y-97076936D01*
X140849322Y-97057277D01*
X140988468Y-96999641D01*
X141107955Y-96907955D01*
X141190792Y-96800000D01*
X141723064Y-96800000D01*
X141742723Y-96949322D01*
X141800359Y-97088468D01*
X141892045Y-97207955D01*
X142011532Y-97299641D01*
X142150678Y-97357277D01*
X142300000Y-97376936D01*
X142449322Y-97357277D01*
X142588468Y-97299641D01*
X142707955Y-97207955D01*
X142799641Y-97088468D01*
X142857277Y-96949322D01*
X142876936Y-96800000D01*
X142857277Y-96650678D01*
X142799641Y-96511532D01*
X142707955Y-96392045D01*
X142588468Y-96300359D01*
X142580838Y-96297198D01*
X142577865Y-96295482D01*
X142528873Y-96244099D01*
X142520483Y-96200563D01*
X142475342Y-96232707D01*
X142417686Y-96238558D01*
X142308188Y-96224142D01*
X142300000Y-96223064D01*
X142150678Y-96242723D01*
X142011532Y-96300359D01*
X141892045Y-96392045D01*
X141800359Y-96511532D01*
X141742723Y-96650678D01*
X141723064Y-96800000D01*
X141190792Y-96800000D01*
X141199641Y-96788468D01*
X141257277Y-96649322D01*
X141276936Y-96500000D01*
X141257277Y-96350678D01*
X141209630Y-96235648D01*
X141202041Y-96165058D01*
X141233820Y-96101571D01*
X141294878Y-96065344D01*
X141309591Y-96062508D01*
X141334875Y-96059179D01*
X141349322Y-96057277D01*
X141488468Y-95999641D01*
X141607955Y-95907955D01*
X141699641Y-95788468D01*
X141757277Y-95649322D01*
X141776936Y-95500000D01*
X142198064Y-95500000D01*
X142217723Y-95649322D01*
X142275359Y-95788468D01*
X142367045Y-95907955D01*
X142486532Y-95999641D01*
X142494161Y-96002801D01*
X142497135Y-96004518D01*
X142546127Y-96055901D01*
X142554517Y-96099437D01*
X142599658Y-96067293D01*
X142657314Y-96061442D01*
X142775000Y-96076936D01*
X142924322Y-96057277D01*
X143063468Y-95999641D01*
X143182955Y-95907955D01*
X143274641Y-95788468D01*
X143277355Y-95790550D01*
X143317237Y-95752504D01*
X143386947Y-95739052D01*
X143452865Y-95765423D01*
X143473842Y-95789632D01*
X143475359Y-95788468D01*
X143567045Y-95907955D01*
X143686532Y-95999641D01*
X143825678Y-96057277D01*
X143975000Y-96076936D01*
X144124322Y-96057277D01*
X144263468Y-95999641D01*
X144382955Y-95907955D01*
X144398475Y-95887729D01*
X144455814Y-95845863D01*
X144526685Y-95841642D01*
X144575138Y-95864472D01*
X144588391Y-95874641D01*
X144727537Y-95932277D01*
X144876859Y-95951936D01*
X145026181Y-95932277D01*
X145165327Y-95874641D01*
X145284814Y-95782955D01*
X145376500Y-95663468D01*
X145413145Y-95575000D01*
X147199923Y-95575000D01*
X147219582Y-95724322D01*
X147277218Y-95863468D01*
X147368904Y-95982955D01*
X147488391Y-96074641D01*
X147627537Y-96132277D01*
X147776859Y-96151936D01*
X147926181Y-96132277D01*
X148065327Y-96074641D01*
X148184814Y-95982955D01*
X148276500Y-95863468D01*
X148334136Y-95724322D01*
X148353795Y-95575000D01*
X148334136Y-95425678D01*
X148276500Y-95286532D01*
X148184814Y-95167045D01*
X148065327Y-95075359D01*
X147926181Y-95017723D01*
X147776859Y-94998064D01*
X147627537Y-95017723D01*
X147488391Y-95075359D01*
X147368904Y-95167045D01*
X147277218Y-95286532D01*
X147219582Y-95425678D01*
X147199923Y-95575000D01*
X145413145Y-95575000D01*
X145434136Y-95524322D01*
X145453795Y-95375000D01*
X145434136Y-95225678D01*
X145376500Y-95086532D01*
X145284814Y-94967045D01*
X145165327Y-94875359D01*
X145026181Y-94817723D01*
X144876859Y-94798064D01*
X144727537Y-94817723D01*
X144588391Y-94875359D01*
X144468904Y-94967045D01*
X144463880Y-94973593D01*
X144453384Y-94987271D01*
X144396045Y-95029137D01*
X144325174Y-95033358D01*
X144276721Y-95010528D01*
X144263468Y-95000359D01*
X144124322Y-94942723D01*
X143975000Y-94923064D01*
X143825678Y-94942723D01*
X143686532Y-95000359D01*
X143567045Y-95092045D01*
X143475359Y-95211532D01*
X143472645Y-95209450D01*
X143432763Y-95247496D01*
X143363053Y-95260948D01*
X143297135Y-95234577D01*
X143276158Y-95210368D01*
X143274641Y-95211532D01*
X143187981Y-95098595D01*
X143182955Y-95092045D01*
X143063468Y-95000359D01*
X142924322Y-94942723D01*
X142775000Y-94923064D01*
X142625678Y-94942723D01*
X142486532Y-95000359D01*
X142367045Y-95092045D01*
X142275359Y-95211532D01*
X142217723Y-95350678D01*
X142198064Y-95500000D01*
X141776936Y-95500000D01*
X141757277Y-95350678D01*
X141699641Y-95211532D01*
X141607955Y-95092045D01*
X141488468Y-95000359D01*
X141349322Y-94942723D01*
X141200000Y-94923064D01*
X141050678Y-94942723D01*
X140911532Y-95000359D01*
X140792045Y-95092045D01*
X140700359Y-95211532D01*
X140642723Y-95350678D01*
X140623064Y-95500000D01*
X140642723Y-95649322D01*
X140648583Y-95663468D01*
X140690370Y-95764352D01*
X140697959Y-95834942D01*
X140666180Y-95898429D01*
X140605122Y-95934656D01*
X140590409Y-95937492D01*
X140570476Y-95940116D01*
X140550678Y-95942723D01*
X140411532Y-96000359D01*
X140292045Y-96092045D01*
X140200359Y-96211532D01*
X140142723Y-96350678D01*
X140123064Y-96500000D01*
X137676936Y-96500000D01*
X137657277Y-96350678D01*
X137599641Y-96211532D01*
X137540312Y-96134213D01*
X137514711Y-96067993D01*
X137528976Y-95998444D01*
X137578577Y-95947648D01*
X137610433Y-95937045D01*
X137610017Y-95935492D01*
X137617991Y-95933355D01*
X137626181Y-95932277D01*
X137765327Y-95874641D01*
X137884814Y-95782955D01*
X137976500Y-95663468D01*
X138034136Y-95524322D01*
X138053795Y-95375000D01*
X138034136Y-95225678D01*
X137976500Y-95086532D01*
X137884814Y-94967045D01*
X137765327Y-94875359D01*
X137626181Y-94817723D01*
X137476859Y-94798064D01*
X137327537Y-94817723D01*
X137188391Y-94875359D01*
X137068904Y-94967045D01*
X136977218Y-95086532D01*
X136919582Y-95225678D01*
X136899923Y-95375000D01*
X136919582Y-95524322D01*
X136977218Y-95663468D01*
X137023596Y-95723908D01*
X137036547Y-95740787D01*
X137062148Y-95807007D01*
X137047883Y-95876556D01*
X136998282Y-95927352D01*
X136966426Y-95937955D01*
X136966842Y-95939508D01*
X136958868Y-95941645D01*
X136950678Y-95942723D01*
X136811532Y-96000359D01*
X136692045Y-96092045D01*
X136600359Y-96211532D01*
X136542723Y-96350678D01*
X136523064Y-96500000D01*
X121781500Y-96500000D01*
X121781500Y-94500000D01*
X129223064Y-94500000D01*
X129242723Y-94649322D01*
X129300359Y-94788468D01*
X129392045Y-94907955D01*
X129511532Y-94999641D01*
X129650678Y-95057277D01*
X129800000Y-95076936D01*
X129949322Y-95057277D01*
X130088468Y-94999641D01*
X130207955Y-94907955D01*
X130299641Y-94788468D01*
X130357277Y-94649322D01*
X130375078Y-94514113D01*
X130381222Y-94500225D01*
X130618579Y-94500225D01*
X130624922Y-94514113D01*
X130642723Y-94649322D01*
X130700359Y-94788468D01*
X130792045Y-94907955D01*
X130911532Y-94999641D01*
X131050678Y-95057277D01*
X131200000Y-95076936D01*
X131349322Y-95057277D01*
X131488468Y-94999641D01*
X131607955Y-94907955D01*
X131699641Y-94788468D01*
X131757277Y-94649322D01*
X131776936Y-94500000D01*
X131760479Y-94375000D01*
X132299923Y-94375000D01*
X132319582Y-94524322D01*
X132377218Y-94663468D01*
X132468904Y-94782955D01*
X132588391Y-94874641D01*
X132727537Y-94932277D01*
X132876859Y-94951936D01*
X133026181Y-94932277D01*
X133165327Y-94874641D01*
X133284814Y-94782955D01*
X133376500Y-94663468D01*
X133434136Y-94524322D01*
X133453795Y-94375000D01*
X133434136Y-94225678D01*
X133376500Y-94086532D01*
X133284814Y-93967045D01*
X133165327Y-93875359D01*
X133026181Y-93817723D01*
X132876859Y-93798064D01*
X132727537Y-93817723D01*
X132588391Y-93875359D01*
X132468904Y-93967045D01*
X132377218Y-94086532D01*
X132319582Y-94225678D01*
X132299923Y-94375000D01*
X131760479Y-94375000D01*
X131757277Y-94350678D01*
X131699641Y-94211532D01*
X131607955Y-94092045D01*
X131488468Y-94000359D01*
X131349322Y-93942723D01*
X131200000Y-93923064D01*
X131050678Y-93942723D01*
X130911532Y-94000359D01*
X130792045Y-94092045D01*
X130700359Y-94211532D01*
X130642723Y-94350678D01*
X130641645Y-94358867D01*
X130624922Y-94485887D01*
X130618579Y-94500225D01*
X130381222Y-94500225D01*
X130381421Y-94499775D01*
X130375078Y-94485887D01*
X130358355Y-94358867D01*
X130357277Y-94350678D01*
X130299641Y-94211532D01*
X130207955Y-94092045D01*
X130088468Y-94000359D01*
X129949322Y-93942723D01*
X129800000Y-93923064D01*
X129650678Y-93942723D01*
X129511532Y-94000359D01*
X129392045Y-94092045D01*
X129300359Y-94211532D01*
X129242723Y-94350678D01*
X129223064Y-94500000D01*
X121781500Y-94500000D01*
X121781500Y-92689286D01*
X130532750Y-92689286D01*
X130549443Y-92859536D01*
X130603440Y-93021856D01*
X130607087Y-93027878D01*
X130607088Y-93027880D01*
X130688406Y-93162154D01*
X130688409Y-93162157D01*
X130692056Y-93168180D01*
X130810889Y-93291234D01*
X130841396Y-93311197D01*
X130941044Y-93376405D01*
X130954030Y-93384903D01*
X130960634Y-93387359D01*
X130960636Y-93387360D01*
X131107757Y-93442074D01*
X131107759Y-93442074D01*
X131114367Y-93444532D01*
X131193454Y-93455085D01*
X131276949Y-93466226D01*
X131276953Y-93466226D01*
X131283930Y-93467157D01*
X131290941Y-93466519D01*
X131290945Y-93466519D01*
X131447273Y-93452292D01*
X131447275Y-93452292D01*
X131454292Y-93451653D01*
X131460990Y-93449477D01*
X131460993Y-93449476D01*
X131610289Y-93400966D01*
X131610291Y-93400965D01*
X131616985Y-93398790D01*
X131735938Y-93327880D01*
X131757872Y-93314805D01*
X131757874Y-93314804D01*
X131763924Y-93311197D01*
X131887805Y-93193227D01*
X131895959Y-93180955D01*
X131939026Y-93116133D01*
X131982471Y-93050743D01*
X132005816Y-92989286D01*
X134832750Y-92989286D01*
X134849443Y-93159536D01*
X134903440Y-93321856D01*
X134907087Y-93327878D01*
X134907088Y-93327880D01*
X134988406Y-93462154D01*
X134988409Y-93462157D01*
X134992056Y-93468180D01*
X135110889Y-93591234D01*
X135254030Y-93684903D01*
X135260634Y-93687359D01*
X135260636Y-93687360D01*
X135407757Y-93742074D01*
X135407759Y-93742074D01*
X135414367Y-93744532D01*
X135493454Y-93755085D01*
X135576949Y-93766226D01*
X135576953Y-93766226D01*
X135583930Y-93767157D01*
X135590941Y-93766519D01*
X135590945Y-93766519D01*
X135747273Y-93752292D01*
X135747275Y-93752292D01*
X135754292Y-93751653D01*
X135760990Y-93749477D01*
X135760993Y-93749476D01*
X135910289Y-93700966D01*
X135910291Y-93700965D01*
X135916985Y-93698790D01*
X135952369Y-93677697D01*
X136057872Y-93614805D01*
X136057874Y-93614804D01*
X136063924Y-93611197D01*
X136180693Y-93500000D01*
X136523064Y-93500000D01*
X136542723Y-93649322D01*
X136600359Y-93788468D01*
X136692045Y-93907955D01*
X136811532Y-93999641D01*
X136950678Y-94057277D01*
X137100000Y-94076936D01*
X137249322Y-94057277D01*
X137388468Y-93999641D01*
X137507955Y-93907955D01*
X137599641Y-93788468D01*
X137657277Y-93649322D01*
X137676936Y-93500000D01*
X138798064Y-93500000D01*
X138817723Y-93649322D01*
X138875359Y-93788468D01*
X138967045Y-93907955D01*
X139086532Y-93999641D01*
X139225678Y-94057277D01*
X139375000Y-94076936D01*
X139524322Y-94057277D01*
X139663468Y-93999641D01*
X139782955Y-93907955D01*
X139874641Y-93788468D01*
X139932277Y-93649322D01*
X139951936Y-93500000D01*
X139932277Y-93350678D01*
X139881170Y-93227294D01*
X139873581Y-93156705D01*
X139905360Y-93093218D01*
X139966418Y-93056991D01*
X140025669Y-93057343D01*
X140025678Y-93057277D01*
X140033862Y-93058354D01*
X140033864Y-93058355D01*
X140166812Y-93075858D01*
X140175000Y-93076936D01*
X140324322Y-93057277D01*
X140463468Y-92999641D01*
X140582955Y-92907955D01*
X140674641Y-92788468D01*
X140732277Y-92649322D01*
X140738770Y-92600000D01*
X141198064Y-92600000D01*
X141217723Y-92749322D01*
X141275359Y-92888468D01*
X141367045Y-93007955D01*
X141461441Y-93080388D01*
X141471889Y-93088405D01*
X141513756Y-93145743D01*
X141517977Y-93216614D01*
X141483212Y-93278517D01*
X141474860Y-93285754D01*
X141473595Y-93287019D01*
X141467045Y-93292045D01*
X141375359Y-93411532D01*
X141317723Y-93550678D01*
X141298064Y-93700000D01*
X141317723Y-93849322D01*
X141375359Y-93988468D01*
X141467045Y-94107955D01*
X141586532Y-94199641D01*
X141725678Y-94257277D01*
X141875000Y-94276936D01*
X142024322Y-94257277D01*
X142163468Y-94199641D01*
X142282955Y-94107955D01*
X142374641Y-93988468D01*
X142432277Y-93849322D01*
X142451936Y-93700000D01*
X142432277Y-93550678D01*
X142374641Y-93411532D01*
X142282955Y-93292045D01*
X142178111Y-93211595D01*
X142136244Y-93154257D01*
X142132023Y-93083386D01*
X142166788Y-93021483D01*
X142175140Y-93014246D01*
X142176405Y-93012981D01*
X142182955Y-93007955D01*
X142263405Y-92903111D01*
X142320743Y-92861244D01*
X142391614Y-92857023D01*
X142453517Y-92891788D01*
X142460754Y-92900140D01*
X142462019Y-92901405D01*
X142467045Y-92907955D01*
X142586532Y-92999641D01*
X142725678Y-93057277D01*
X142875000Y-93076936D01*
X143024322Y-93057277D01*
X143163468Y-92999641D01*
X143282955Y-92907955D01*
X143374641Y-92788468D01*
X143432277Y-92649322D01*
X143451936Y-92500000D01*
X143432277Y-92350678D01*
X143374641Y-92211532D01*
X143282955Y-92092045D01*
X143163468Y-92000359D01*
X143024322Y-91942723D01*
X142875000Y-91923064D01*
X142725678Y-91942723D01*
X142586532Y-92000359D01*
X142467045Y-92092045D01*
X142456807Y-92105388D01*
X142386595Y-92196889D01*
X142329257Y-92238756D01*
X142258386Y-92242977D01*
X142196483Y-92208212D01*
X142189246Y-92199860D01*
X142187981Y-92198595D01*
X142182955Y-92192045D01*
X142063468Y-92100359D01*
X141924322Y-92042723D01*
X141775000Y-92023064D01*
X141625678Y-92042723D01*
X141486532Y-92100359D01*
X141367045Y-92192045D01*
X141275359Y-92311532D01*
X141217723Y-92450678D01*
X141198064Y-92600000D01*
X140738770Y-92600000D01*
X140751936Y-92500000D01*
X140732277Y-92350678D01*
X140674641Y-92211532D01*
X140582955Y-92092045D01*
X140463468Y-92000359D01*
X140324322Y-91942723D01*
X140175000Y-91923064D01*
X140025678Y-91942723D01*
X139886532Y-92000359D01*
X139885096Y-92001461D01*
X139819006Y-92017494D01*
X139765217Y-92001701D01*
X139763468Y-92000359D01*
X139624322Y-91942723D01*
X139475000Y-91923064D01*
X139325678Y-91942723D01*
X139186532Y-92000359D01*
X139067045Y-92092045D01*
X138975359Y-92211532D01*
X138917723Y-92350678D01*
X138898064Y-92500000D01*
X138917723Y-92649322D01*
X138975359Y-92788468D01*
X139042192Y-92875567D01*
X139067792Y-92941784D01*
X139053528Y-93011332D01*
X139018936Y-93052227D01*
X138967045Y-93092045D01*
X138875359Y-93211532D01*
X138817723Y-93350678D01*
X138798064Y-93500000D01*
X137676936Y-93500000D01*
X137663303Y-93396449D01*
X137674242Y-93326300D01*
X137688261Y-93303300D01*
X137694612Y-93295023D01*
X137694614Y-93295019D01*
X137699641Y-93288468D01*
X137757277Y-93149322D01*
X137776936Y-93000000D01*
X137757277Y-92850678D01*
X137699641Y-92711532D01*
X137607955Y-92592045D01*
X137488468Y-92500359D01*
X137349322Y-92442723D01*
X137200000Y-92423064D01*
X137050678Y-92442723D01*
X136911532Y-92500359D01*
X136792045Y-92592045D01*
X136700359Y-92711532D01*
X136642723Y-92850678D01*
X136623064Y-93000000D01*
X136624142Y-93008188D01*
X136636697Y-93103551D01*
X136625758Y-93173700D01*
X136611739Y-93196700D01*
X136605388Y-93204977D01*
X136605387Y-93204979D01*
X136600359Y-93211532D01*
X136597199Y-93219162D01*
X136585788Y-93246710D01*
X136541239Y-93301990D01*
X136527367Y-93306607D01*
X136539685Y-93373750D01*
X136525986Y-93477804D01*
X136523064Y-93500000D01*
X136180693Y-93500000D01*
X136187805Y-93493227D01*
X136200154Y-93474641D01*
X136252104Y-93396449D01*
X136282471Y-93350743D01*
X136284972Y-93344158D01*
X136284975Y-93344153D01*
X136296975Y-93312561D01*
X136339863Y-93255983D01*
X136355922Y-93250103D01*
X136344605Y-93180955D01*
X136345640Y-93173595D01*
X136361987Y-93057277D01*
X136366475Y-93025347D01*
X136366475Y-93025344D01*
X136367026Y-93021425D01*
X136367325Y-93000000D01*
X136350575Y-92850678D01*
X136349041Y-92836998D01*
X136348256Y-92830000D01*
X136336076Y-92795021D01*
X136294314Y-92675097D01*
X136294313Y-92675095D01*
X136291999Y-92668450D01*
X136274930Y-92641133D01*
X136205081Y-92529352D01*
X136201348Y-92523378D01*
X136188159Y-92510096D01*
X136085772Y-92406992D01*
X136080809Y-92401994D01*
X136012777Y-92358820D01*
X135942316Y-92314104D01*
X135942313Y-92314102D01*
X135936373Y-92310333D01*
X135929740Y-92307971D01*
X135781854Y-92255311D01*
X135781849Y-92255310D01*
X135775219Y-92252949D01*
X135768231Y-92252116D01*
X135768228Y-92252115D01*
X135652655Y-92238334D01*
X135605357Y-92232694D01*
X135598354Y-92233430D01*
X135598353Y-92233430D01*
X135553958Y-92238096D01*
X135435228Y-92250575D01*
X135425071Y-92254033D01*
X135279956Y-92303434D01*
X135279953Y-92303435D01*
X135273289Y-92305704D01*
X135127588Y-92395340D01*
X135122557Y-92400267D01*
X135122554Y-92400269D01*
X135079202Y-92442723D01*
X135005366Y-92515028D01*
X135001547Y-92520953D01*
X135001546Y-92520955D01*
X134996135Y-92529352D01*
X134912698Y-92658820D01*
X134910287Y-92665443D01*
X134910286Y-92665446D01*
X134856600Y-92812947D01*
X134856599Y-92812952D01*
X134854190Y-92819570D01*
X134832750Y-92989286D01*
X132005816Y-92989286D01*
X132036711Y-92907955D01*
X132040718Y-92897408D01*
X132040719Y-92897406D01*
X132043218Y-92890826D01*
X132048601Y-92852527D01*
X132066475Y-92725347D01*
X132066475Y-92725344D01*
X132067026Y-92721425D01*
X132067325Y-92700000D01*
X132048256Y-92530000D01*
X132045107Y-92520955D01*
X131994314Y-92375097D01*
X131994313Y-92375095D01*
X131991999Y-92368450D01*
X131976126Y-92343047D01*
X131905081Y-92229352D01*
X131901348Y-92223378D01*
X131889585Y-92211532D01*
X131785772Y-92106992D01*
X131780809Y-92101994D01*
X131687412Y-92042723D01*
X131642316Y-92014104D01*
X131642313Y-92014102D01*
X131636373Y-92010333D01*
X131629740Y-92007971D01*
X131481854Y-91955311D01*
X131481849Y-91955310D01*
X131475219Y-91952949D01*
X131468231Y-91952116D01*
X131468228Y-91952115D01*
X131352655Y-91938334D01*
X131305357Y-91932694D01*
X131298354Y-91933430D01*
X131298353Y-91933430D01*
X131253958Y-91938096D01*
X131135228Y-91950575D01*
X131125071Y-91954033D01*
X130979956Y-92003434D01*
X130979953Y-92003435D01*
X130973289Y-92005704D01*
X130827588Y-92095340D01*
X130822557Y-92100267D01*
X130822554Y-92100269D01*
X130817327Y-92105388D01*
X130705366Y-92215028D01*
X130701547Y-92220953D01*
X130701546Y-92220955D01*
X130680927Y-92252949D01*
X130612698Y-92358820D01*
X130610287Y-92365443D01*
X130610286Y-92365446D01*
X130556600Y-92512947D01*
X130556599Y-92512952D01*
X130554190Y-92519570D01*
X130532750Y-92689286D01*
X121781500Y-92689286D01*
X121781500Y-91200000D01*
X136723064Y-91200000D01*
X136742723Y-91349322D01*
X136800359Y-91488468D01*
X136892045Y-91607955D01*
X137011532Y-91699641D01*
X137150678Y-91757277D01*
X137300000Y-91776936D01*
X137449322Y-91757277D01*
X137588468Y-91699641D01*
X137707955Y-91607955D01*
X137738506Y-91568140D01*
X137795843Y-91526274D01*
X137866714Y-91522053D01*
X137915169Y-91544882D01*
X137986532Y-91599641D01*
X138125678Y-91657277D01*
X138275000Y-91676936D01*
X138424322Y-91657277D01*
X138563468Y-91599641D01*
X138598298Y-91572915D01*
X138664515Y-91547315D01*
X138734064Y-91561579D01*
X138751696Y-91572910D01*
X138786532Y-91599641D01*
X138925678Y-91657277D01*
X139075000Y-91676936D01*
X139224322Y-91657277D01*
X139363468Y-91599641D01*
X139482955Y-91507955D01*
X139574641Y-91388468D01*
X139632277Y-91249322D01*
X139642062Y-91175000D01*
X144299923Y-91175000D01*
X144319582Y-91324322D01*
X144377218Y-91463468D01*
X144468904Y-91582955D01*
X144508034Y-91612981D01*
X144583732Y-91671066D01*
X144625599Y-91728404D01*
X144629821Y-91799275D01*
X144606991Y-91847731D01*
X144577218Y-91886532D01*
X144519582Y-92025678D01*
X144499923Y-92175000D01*
X144519582Y-92324322D01*
X144533891Y-92358867D01*
X144574327Y-92456489D01*
X144581916Y-92527079D01*
X144557882Y-92581410D01*
X144477218Y-92686532D01*
X144419582Y-92825678D01*
X144399923Y-92975000D01*
X144419582Y-93124322D01*
X144477218Y-93263468D01*
X144568904Y-93382955D01*
X144688391Y-93474641D01*
X144696020Y-93477801D01*
X144696025Y-93477804D01*
X144725171Y-93489876D01*
X144780453Y-93534423D01*
X144801876Y-93589838D01*
X144819582Y-93724322D01*
X144877218Y-93863468D01*
X144968904Y-93982955D01*
X145088391Y-94074641D01*
X145227537Y-94132277D01*
X145376859Y-94151936D01*
X145526181Y-94132277D01*
X145665327Y-94074641D01*
X145784814Y-93982955D01*
X145876500Y-93863468D01*
X145934136Y-93724322D01*
X145953795Y-93575000D01*
X145934136Y-93425678D01*
X145876500Y-93286532D01*
X145784814Y-93167045D01*
X145665327Y-93075359D01*
X145657698Y-93072199D01*
X145657693Y-93072196D01*
X145628547Y-93060124D01*
X145573265Y-93015577D01*
X145551841Y-92960161D01*
X145543580Y-92897408D01*
X145534136Y-92825678D01*
X145490016Y-92719162D01*
X145479391Y-92693511D01*
X145471802Y-92622921D01*
X145495837Y-92568589D01*
X145497022Y-92567045D01*
X145576500Y-92463468D01*
X145634136Y-92324322D01*
X145653795Y-92175000D01*
X145634136Y-92025678D01*
X145576500Y-91886532D01*
X145484814Y-91767045D01*
X145369986Y-91678934D01*
X145328119Y-91621596D01*
X145323897Y-91550725D01*
X145346727Y-91502269D01*
X145363171Y-91480838D01*
X145376500Y-91463468D01*
X145434136Y-91324322D01*
X145453795Y-91175000D01*
X145434136Y-91025678D01*
X145376500Y-90886532D01*
X145284814Y-90767045D01*
X145165327Y-90675359D01*
X145026181Y-90617723D01*
X144876859Y-90598064D01*
X144727537Y-90617723D01*
X144588391Y-90675359D01*
X144468904Y-90767045D01*
X144377218Y-90886532D01*
X144319582Y-91025678D01*
X144299923Y-91175000D01*
X139642062Y-91175000D01*
X139651936Y-91100000D01*
X139632277Y-90950678D01*
X139574641Y-90811532D01*
X139482955Y-90692045D01*
X139363468Y-90600359D01*
X139224322Y-90542723D01*
X139075000Y-90523064D01*
X138925678Y-90542723D01*
X138786532Y-90600359D01*
X138751702Y-90627085D01*
X138685485Y-90652685D01*
X138615936Y-90638421D01*
X138598304Y-90627090D01*
X138563468Y-90600359D01*
X138424322Y-90542723D01*
X138275000Y-90523064D01*
X138125678Y-90542723D01*
X137986532Y-90600359D01*
X137867045Y-90692045D01*
X137856809Y-90705385D01*
X137836495Y-90731859D01*
X137779157Y-90773726D01*
X137708286Y-90777947D01*
X137659831Y-90755118D01*
X137588468Y-90700359D01*
X137449322Y-90642723D01*
X137300000Y-90623064D01*
X137150678Y-90642723D01*
X137011532Y-90700359D01*
X136892045Y-90792045D01*
X136800359Y-90911532D01*
X136742723Y-91050678D01*
X136723064Y-91200000D01*
X121781500Y-91200000D01*
X121781500Y-89789286D01*
X128894750Y-89789286D01*
X128911443Y-89959536D01*
X128965440Y-90121856D01*
X128969087Y-90127878D01*
X128969088Y-90127880D01*
X129050406Y-90262154D01*
X129050409Y-90262157D01*
X129054056Y-90268180D01*
X129172889Y-90391234D01*
X129316030Y-90484903D01*
X129322634Y-90487359D01*
X129322636Y-90487360D01*
X129469757Y-90542074D01*
X129469759Y-90542074D01*
X129476367Y-90544532D01*
X129555454Y-90555085D01*
X129638949Y-90566226D01*
X129638953Y-90566226D01*
X129645930Y-90567157D01*
X129652941Y-90566519D01*
X129652945Y-90566519D01*
X129809273Y-90552292D01*
X129809275Y-90552292D01*
X129816292Y-90551653D01*
X129822990Y-90549477D01*
X129822993Y-90549476D01*
X129972289Y-90500966D01*
X129972291Y-90500965D01*
X129978985Y-90498790D01*
X130125924Y-90411197D01*
X130249805Y-90293227D01*
X130263079Y-90273249D01*
X130340570Y-90156614D01*
X130344471Y-90150743D01*
X130405218Y-89990826D01*
X130429026Y-89821425D01*
X130429325Y-89800000D01*
X130410256Y-89630000D01*
X130404330Y-89612981D01*
X130356314Y-89475097D01*
X130356313Y-89475095D01*
X130353999Y-89468450D01*
X130263348Y-89323378D01*
X130250159Y-89310096D01*
X130147772Y-89206992D01*
X130142809Y-89201994D01*
X130139667Y-89200000D01*
X134723064Y-89200000D01*
X134742723Y-89349322D01*
X134800359Y-89488468D01*
X134892045Y-89607955D01*
X135011532Y-89699641D01*
X135150678Y-89757277D01*
X135300000Y-89776936D01*
X135449322Y-89757277D01*
X135588468Y-89699641D01*
X135707955Y-89607955D01*
X135799641Y-89488468D01*
X135857277Y-89349322D01*
X135876936Y-89200000D01*
X135857277Y-89050678D01*
X135799641Y-88911532D01*
X135707955Y-88792045D01*
X135588468Y-88700359D01*
X135449322Y-88642723D01*
X135300000Y-88623064D01*
X135150678Y-88642723D01*
X135011532Y-88700359D01*
X134892045Y-88792045D01*
X134800359Y-88911532D01*
X134742723Y-89050678D01*
X134723064Y-89200000D01*
X130139667Y-89200000D01*
X130077539Y-89160573D01*
X130004316Y-89114104D01*
X130004313Y-89114102D01*
X129998373Y-89110333D01*
X129991740Y-89107971D01*
X129843854Y-89055311D01*
X129843849Y-89055310D01*
X129837219Y-89052949D01*
X129830231Y-89052116D01*
X129830228Y-89052115D01*
X129714655Y-89038334D01*
X129667357Y-89032694D01*
X129660354Y-89033430D01*
X129660353Y-89033430D01*
X129615958Y-89038096D01*
X129497228Y-89050575D01*
X129487071Y-89054033D01*
X129341956Y-89103434D01*
X129341953Y-89103435D01*
X129335289Y-89105704D01*
X129189588Y-89195340D01*
X129184557Y-89200267D01*
X129184554Y-89200269D01*
X129125573Y-89258028D01*
X129067366Y-89315028D01*
X129063547Y-89320953D01*
X129063546Y-89320955D01*
X129058135Y-89329352D01*
X128974698Y-89458820D01*
X128972287Y-89465443D01*
X128972286Y-89465446D01*
X128918600Y-89612947D01*
X128918599Y-89612952D01*
X128916190Y-89619570D01*
X128894750Y-89789286D01*
X121781500Y-89789286D01*
X121781500Y-84460000D01*
X122863796Y-84460000D01*
X122882577Y-84674665D01*
X122884001Y-84679978D01*
X122884001Y-84679980D01*
X122915466Y-84797408D01*
X122938348Y-84882807D01*
X122940670Y-84887787D01*
X122940671Y-84887789D01*
X123027090Y-85073115D01*
X123027093Y-85073120D01*
X123029416Y-85078102D01*
X123032572Y-85082609D01*
X123032573Y-85082611D01*
X123118543Y-85205388D01*
X123153013Y-85254617D01*
X123305383Y-85406987D01*
X123309891Y-85410144D01*
X123309894Y-85410146D01*
X123377826Y-85457712D01*
X123481898Y-85530584D01*
X123486882Y-85532908D01*
X123487701Y-85533381D01*
X123536694Y-85584764D01*
X123550130Y-85654477D01*
X123523744Y-85720388D01*
X123465911Y-85761570D01*
X123424701Y-85768500D01*
X123213842Y-85768500D01*
X123209294Y-85769170D01*
X123209287Y-85769170D01*
X123148541Y-85778112D01*
X123148539Y-85778113D01*
X123138856Y-85779538D01*
X123130068Y-85783853D01*
X123130067Y-85783853D01*
X123034197Y-85830923D01*
X123034196Y-85830924D01*
X123024849Y-85835513D01*
X122935120Y-85925399D01*
X122930547Y-85934755D01*
X122930546Y-85934756D01*
X122916995Y-85962479D01*
X122879345Y-86039503D01*
X122877933Y-86049183D01*
X122869165Y-86109287D01*
X122868500Y-86113842D01*
X122868500Y-87886158D01*
X122869170Y-87890706D01*
X122869170Y-87890713D01*
X122878112Y-87951459D01*
X122879538Y-87961144D01*
X122935513Y-88075151D01*
X123025399Y-88164880D01*
X123139503Y-88220655D01*
X123172284Y-88225437D01*
X123209316Y-88230840D01*
X123209320Y-88230840D01*
X123213842Y-88231500D01*
X124986158Y-88231500D01*
X124990706Y-88230830D01*
X124990713Y-88230830D01*
X125051459Y-88221888D01*
X125051461Y-88221887D01*
X125061144Y-88220462D01*
X125069933Y-88216147D01*
X125165803Y-88169077D01*
X125165804Y-88169076D01*
X125175151Y-88164487D01*
X125264880Y-88074601D01*
X125320655Y-87960497D01*
X125325437Y-87927716D01*
X125330840Y-87890684D01*
X125330840Y-87890680D01*
X125331500Y-87886158D01*
X125331500Y-87700000D01*
X141223064Y-87700000D01*
X141242723Y-87849322D01*
X141300359Y-87988468D01*
X141392045Y-88107955D01*
X141511532Y-88199641D01*
X141650678Y-88257277D01*
X141800000Y-88276936D01*
X141949322Y-88257277D01*
X142088468Y-88199641D01*
X142207955Y-88107955D01*
X142214059Y-88100000D01*
X145523064Y-88100000D01*
X145542723Y-88249322D01*
X145600359Y-88388468D01*
X145692045Y-88507955D01*
X145811532Y-88599641D01*
X145950678Y-88657277D01*
X146100000Y-88676936D01*
X146249322Y-88657277D01*
X146388468Y-88599641D01*
X146507955Y-88507955D01*
X146599641Y-88388468D01*
X146657277Y-88249322D01*
X146676936Y-88100000D01*
X146657277Y-87950678D01*
X146599641Y-87811532D01*
X146507955Y-87692045D01*
X146388468Y-87600359D01*
X146249322Y-87542723D01*
X146100000Y-87523064D01*
X145950678Y-87542723D01*
X145811532Y-87600359D01*
X145692045Y-87692045D01*
X145600359Y-87811532D01*
X145542723Y-87950678D01*
X145523064Y-88100000D01*
X142214059Y-88100000D01*
X142299641Y-87988468D01*
X142357277Y-87849322D01*
X142376936Y-87700000D01*
X142357277Y-87550678D01*
X142299641Y-87411532D01*
X142207955Y-87292045D01*
X142088468Y-87200359D01*
X141949322Y-87142723D01*
X141800000Y-87123064D01*
X141650678Y-87142723D01*
X141511532Y-87200359D01*
X141392045Y-87292045D01*
X141300359Y-87411532D01*
X141242723Y-87550678D01*
X141223064Y-87700000D01*
X125331500Y-87700000D01*
X125331500Y-86113842D01*
X125330634Y-86107955D01*
X125321888Y-86048541D01*
X125321887Y-86048539D01*
X125320462Y-86038856D01*
X125295723Y-85988468D01*
X125269077Y-85934197D01*
X125269076Y-85934196D01*
X125264487Y-85924849D01*
X125174601Y-85835120D01*
X125150580Y-85823378D01*
X125069719Y-85783853D01*
X125060497Y-85779345D01*
X125027716Y-85774563D01*
X124990684Y-85769160D01*
X124990680Y-85769160D01*
X124986158Y-85768500D01*
X124775299Y-85768500D01*
X124707178Y-85748498D01*
X124660685Y-85694842D01*
X124650581Y-85624568D01*
X124680075Y-85559988D01*
X124712299Y-85533381D01*
X124713118Y-85532908D01*
X124718102Y-85530584D01*
X124822174Y-85457712D01*
X124890106Y-85410146D01*
X124890109Y-85410144D01*
X124894617Y-85406987D01*
X125046987Y-85254617D01*
X125081458Y-85205388D01*
X125167427Y-85082611D01*
X125167428Y-85082609D01*
X125170584Y-85078102D01*
X125172907Y-85073120D01*
X125172910Y-85073115D01*
X125259329Y-84887789D01*
X125259330Y-84887787D01*
X125261652Y-84882807D01*
X125284535Y-84797408D01*
X125315999Y-84679980D01*
X125315999Y-84679978D01*
X125317423Y-84674665D01*
X125324893Y-84589286D01*
X132032750Y-84589286D01*
X132049443Y-84759536D01*
X132103440Y-84921856D01*
X132107087Y-84927878D01*
X132107088Y-84927880D01*
X132188406Y-85062154D01*
X132188409Y-85062157D01*
X132192056Y-85068180D01*
X132310889Y-85191234D01*
X132454030Y-85284903D01*
X132460634Y-85287359D01*
X132460636Y-85287360D01*
X132607762Y-85342076D01*
X132607765Y-85342077D01*
X132614367Y-85344532D01*
X132619962Y-85345279D01*
X132680742Y-85380889D01*
X132712871Y-85444200D01*
X132705671Y-85514830D01*
X132661429Y-85570356D01*
X132629603Y-85586533D01*
X132579958Y-85603433D01*
X132579953Y-85603435D01*
X132573289Y-85605704D01*
X132427588Y-85695340D01*
X132422557Y-85700267D01*
X132422554Y-85700269D01*
X132363573Y-85758028D01*
X132305366Y-85815028D01*
X132301547Y-85820953D01*
X132301546Y-85820955D01*
X132283265Y-85849322D01*
X132212698Y-85958820D01*
X132210287Y-85965443D01*
X132210286Y-85965446D01*
X132156600Y-86112947D01*
X132156599Y-86112952D01*
X132154190Y-86119570D01*
X132132750Y-86289286D01*
X132149443Y-86459536D01*
X132203440Y-86621856D01*
X132207087Y-86627878D01*
X132207088Y-86627880D01*
X132288406Y-86762154D01*
X132288409Y-86762157D01*
X132292056Y-86768180D01*
X132410889Y-86891234D01*
X132554030Y-86984903D01*
X132560634Y-86987359D01*
X132560636Y-86987360D01*
X132707757Y-87042074D01*
X132707759Y-87042074D01*
X132714367Y-87044532D01*
X132793454Y-87055085D01*
X132876949Y-87066226D01*
X132876953Y-87066226D01*
X132883930Y-87067157D01*
X132890941Y-87066519D01*
X132890945Y-87066519D01*
X133047273Y-87052292D01*
X133047275Y-87052292D01*
X133054292Y-87051653D01*
X133060990Y-87049477D01*
X133060993Y-87049476D01*
X133210289Y-87000966D01*
X133210291Y-87000965D01*
X133216985Y-86998790D01*
X133363924Y-86911197D01*
X133487805Y-86793227D01*
X133501079Y-86773249D01*
X133565068Y-86676936D01*
X133582471Y-86650743D01*
X133636711Y-86507955D01*
X133640718Y-86497408D01*
X133640719Y-86497406D01*
X133643218Y-86490826D01*
X133667026Y-86321425D01*
X133667325Y-86300000D01*
X133648256Y-86130000D01*
X133644234Y-86118448D01*
X133594314Y-85975097D01*
X133594313Y-85975095D01*
X133591999Y-85968450D01*
X133576126Y-85943047D01*
X133505081Y-85829352D01*
X133501348Y-85823378D01*
X133489585Y-85811532D01*
X133385772Y-85706992D01*
X133380809Y-85701994D01*
X133377667Y-85700000D01*
X138423064Y-85700000D01*
X138442723Y-85849322D01*
X138500359Y-85988468D01*
X138592045Y-86107955D01*
X138711532Y-86199641D01*
X138850678Y-86257277D01*
X139000000Y-86276936D01*
X139149322Y-86257277D01*
X139288468Y-86199641D01*
X139407955Y-86107955D01*
X139414059Y-86100000D01*
X142623064Y-86100000D01*
X142642723Y-86249322D01*
X142700359Y-86388468D01*
X142792045Y-86507955D01*
X142911532Y-86599641D01*
X143050678Y-86657277D01*
X143200000Y-86676936D01*
X143349322Y-86657277D01*
X143488468Y-86599641D01*
X143607955Y-86507955D01*
X143699641Y-86388468D01*
X143757277Y-86249322D01*
X143776936Y-86100000D01*
X143757277Y-85950678D01*
X143699641Y-85811532D01*
X143607955Y-85692045D01*
X143488468Y-85600359D01*
X143349322Y-85542723D01*
X143200000Y-85523064D01*
X143050678Y-85542723D01*
X142911532Y-85600359D01*
X142792045Y-85692045D01*
X142700359Y-85811532D01*
X142642723Y-85950678D01*
X142623064Y-86100000D01*
X139414059Y-86100000D01*
X139499641Y-85988468D01*
X139557277Y-85849322D01*
X139576936Y-85700000D01*
X139557277Y-85550678D01*
X139499641Y-85411532D01*
X139407955Y-85292045D01*
X139288468Y-85200359D01*
X139149322Y-85142723D01*
X139000000Y-85123064D01*
X138850678Y-85142723D01*
X138711532Y-85200359D01*
X138592045Y-85292045D01*
X138500359Y-85411532D01*
X138442723Y-85550678D01*
X138423064Y-85700000D01*
X133377667Y-85700000D01*
X133315539Y-85660573D01*
X133242316Y-85614104D01*
X133242313Y-85614102D01*
X133236373Y-85610333D01*
X133216996Y-85603433D01*
X133075219Y-85552949D01*
X133075757Y-85551439D01*
X133021345Y-85520569D01*
X132988337Y-85457712D01*
X132994553Y-85386988D01*
X133038018Y-85330852D01*
X133072941Y-85313101D01*
X133110287Y-85300967D01*
X133110292Y-85300965D01*
X133116985Y-85298790D01*
X133191086Y-85254617D01*
X133257872Y-85214805D01*
X133257874Y-85214804D01*
X133263924Y-85211197D01*
X133387805Y-85093227D01*
X133394859Y-85082611D01*
X133478570Y-84956614D01*
X133482471Y-84950743D01*
X133543218Y-84790826D01*
X133567026Y-84621425D01*
X133567325Y-84600000D01*
X133548256Y-84430000D01*
X133491999Y-84268450D01*
X133480980Y-84250815D01*
X133405081Y-84129352D01*
X133401348Y-84123378D01*
X133388159Y-84110096D01*
X133285772Y-84006992D01*
X133280809Y-84001994D01*
X133215539Y-83960573D01*
X133142316Y-83914104D01*
X133142313Y-83914102D01*
X133136373Y-83910333D01*
X133129740Y-83907971D01*
X132981854Y-83855311D01*
X132981849Y-83855310D01*
X132975219Y-83852949D01*
X132968231Y-83852116D01*
X132968228Y-83852115D01*
X132844730Y-83837389D01*
X132805357Y-83832694D01*
X132798354Y-83833430D01*
X132798353Y-83833430D01*
X132760686Y-83837389D01*
X132635228Y-83850575D01*
X132625071Y-83854033D01*
X132479956Y-83903434D01*
X132479953Y-83903435D01*
X132473289Y-83905704D01*
X132327588Y-83995340D01*
X132322557Y-84000267D01*
X132322554Y-84000269D01*
X132315689Y-84006992D01*
X132205366Y-84115028D01*
X132201547Y-84120953D01*
X132201546Y-84120955D01*
X132196135Y-84129352D01*
X132112698Y-84258820D01*
X132110287Y-84265443D01*
X132110286Y-84265446D01*
X132056600Y-84412947D01*
X132056599Y-84412952D01*
X132054190Y-84419570D01*
X132032750Y-84589286D01*
X125324893Y-84589286D01*
X125336204Y-84460000D01*
X125317423Y-84245335D01*
X125261652Y-84037193D01*
X125247569Y-84006992D01*
X125172910Y-83846885D01*
X125172907Y-83846880D01*
X125170584Y-83841898D01*
X125167427Y-83837389D01*
X125050146Y-83669894D01*
X125050144Y-83669891D01*
X125046987Y-83665383D01*
X124894617Y-83513013D01*
X124890109Y-83509856D01*
X124890106Y-83509854D01*
X124722611Y-83392573D01*
X124722609Y-83392572D01*
X124718102Y-83389416D01*
X124713120Y-83387093D01*
X124713115Y-83387090D01*
X124535346Y-83304195D01*
X124482061Y-83257277D01*
X124462600Y-83189000D01*
X124483142Y-83121040D01*
X124535346Y-83075805D01*
X124713115Y-82992910D01*
X124713120Y-82992907D01*
X124718102Y-82990584D01*
X124722611Y-82987427D01*
X124890106Y-82870146D01*
X124890109Y-82870144D01*
X124894617Y-82866987D01*
X125046987Y-82714617D01*
X125061965Y-82693227D01*
X125167427Y-82542611D01*
X125167428Y-82542609D01*
X125170584Y-82538102D01*
X125172907Y-82533120D01*
X125172910Y-82533115D01*
X125259329Y-82347789D01*
X125259330Y-82347787D01*
X125261652Y-82342807D01*
X125300909Y-82196299D01*
X125302788Y-82189286D01*
X128594750Y-82189286D01*
X128611443Y-82359536D01*
X128665440Y-82521856D01*
X128669087Y-82527878D01*
X128669088Y-82527880D01*
X128750406Y-82662154D01*
X128750409Y-82662157D01*
X128754056Y-82668180D01*
X128872889Y-82791234D01*
X128878785Y-82795092D01*
X128988652Y-82866987D01*
X129016030Y-82884903D01*
X129022634Y-82887359D01*
X129022636Y-82887360D01*
X129169757Y-82942074D01*
X129169759Y-82942074D01*
X129176367Y-82944532D01*
X129255454Y-82955085D01*
X129338949Y-82966226D01*
X129338953Y-82966226D01*
X129345930Y-82967157D01*
X129352941Y-82966519D01*
X129352945Y-82966519D01*
X129509273Y-82952292D01*
X129509275Y-82952292D01*
X129516292Y-82951653D01*
X129522990Y-82949477D01*
X129522993Y-82949476D01*
X129672289Y-82900966D01*
X129672291Y-82900965D01*
X129678985Y-82898790D01*
X129732335Y-82866987D01*
X129819872Y-82814805D01*
X129819874Y-82814804D01*
X129825924Y-82811197D01*
X129949805Y-82693227D01*
X129963079Y-82673249D01*
X130040570Y-82556614D01*
X130044471Y-82550743D01*
X130105218Y-82390826D01*
X130126271Y-82241027D01*
X130128475Y-82225347D01*
X130128475Y-82225344D01*
X130129026Y-82221425D01*
X130129325Y-82200000D01*
X130128123Y-82189286D01*
X134494750Y-82189286D01*
X134511443Y-82359536D01*
X134565440Y-82521856D01*
X134569087Y-82527878D01*
X134569088Y-82527880D01*
X134650406Y-82662154D01*
X134650409Y-82662157D01*
X134654056Y-82668180D01*
X134772889Y-82791234D01*
X134778785Y-82795092D01*
X134888652Y-82866987D01*
X134916030Y-82884903D01*
X134922634Y-82887359D01*
X134922636Y-82887360D01*
X135069757Y-82942074D01*
X135069759Y-82942074D01*
X135076367Y-82944532D01*
X135155454Y-82955085D01*
X135238949Y-82966226D01*
X135238953Y-82966226D01*
X135245930Y-82967157D01*
X135252941Y-82966519D01*
X135252945Y-82966519D01*
X135409273Y-82952292D01*
X135409275Y-82952292D01*
X135416292Y-82951653D01*
X135422990Y-82949477D01*
X135422993Y-82949476D01*
X135572289Y-82900966D01*
X135572291Y-82900965D01*
X135578985Y-82898790D01*
X135632335Y-82866987D01*
X135719872Y-82814805D01*
X135719874Y-82814804D01*
X135725924Y-82811197D01*
X135849805Y-82693227D01*
X135863079Y-82673249D01*
X135940570Y-82556614D01*
X135944471Y-82550743D01*
X136005218Y-82390826D01*
X136026271Y-82241027D01*
X136028475Y-82225347D01*
X136028475Y-82225344D01*
X136029026Y-82221425D01*
X136029325Y-82200000D01*
X136010256Y-82030000D01*
X135992417Y-81978771D01*
X135956314Y-81875097D01*
X135956313Y-81875095D01*
X135953999Y-81868450D01*
X135863348Y-81723378D01*
X135850873Y-81710815D01*
X135823996Y-81683750D01*
X139023064Y-81683750D01*
X139042723Y-81833072D01*
X139100359Y-81972218D01*
X139192045Y-82091705D01*
X139311532Y-82183391D01*
X139450678Y-82241027D01*
X139600000Y-82260686D01*
X139749322Y-82241027D01*
X139888468Y-82183391D01*
X140007955Y-82091705D01*
X140099641Y-81972218D01*
X140157277Y-81833072D01*
X140176936Y-81683750D01*
X140157277Y-81534428D01*
X140099641Y-81395282D01*
X140007955Y-81275795D01*
X139888468Y-81184109D01*
X139749322Y-81126473D01*
X139600000Y-81106814D01*
X139450678Y-81126473D01*
X139311532Y-81184109D01*
X139192045Y-81275795D01*
X139100359Y-81395282D01*
X139042723Y-81534428D01*
X139023064Y-81683750D01*
X135823996Y-81683750D01*
X135747772Y-81606992D01*
X135742809Y-81601994D01*
X135636341Y-81534428D01*
X135604316Y-81514104D01*
X135604313Y-81514102D01*
X135598373Y-81510333D01*
X135591740Y-81507971D01*
X135443854Y-81455311D01*
X135443849Y-81455310D01*
X135437219Y-81452949D01*
X135430231Y-81452116D01*
X135430228Y-81452115D01*
X135314655Y-81438334D01*
X135267357Y-81432694D01*
X135260354Y-81433430D01*
X135260353Y-81433430D01*
X135215958Y-81438096D01*
X135097228Y-81450575D01*
X135087071Y-81454033D01*
X134941956Y-81503434D01*
X134941953Y-81503435D01*
X134935289Y-81505704D01*
X134789588Y-81595340D01*
X134784557Y-81600267D01*
X134784554Y-81600269D01*
X134777689Y-81606992D01*
X134667366Y-81715028D01*
X134663547Y-81720953D01*
X134663546Y-81720955D01*
X134658135Y-81729352D01*
X134574698Y-81858820D01*
X134572287Y-81865443D01*
X134572286Y-81865446D01*
X134518600Y-82012947D01*
X134518599Y-82012952D01*
X134516190Y-82019570D01*
X134494750Y-82189286D01*
X130128123Y-82189286D01*
X130110256Y-82030000D01*
X130092417Y-81978771D01*
X130056314Y-81875097D01*
X130056313Y-81875095D01*
X130053999Y-81868450D01*
X129963348Y-81723378D01*
X129950873Y-81710815D01*
X129847772Y-81606992D01*
X129842809Y-81601994D01*
X129736341Y-81534428D01*
X129704316Y-81514104D01*
X129704313Y-81514102D01*
X129698373Y-81510333D01*
X129691740Y-81507971D01*
X129543854Y-81455311D01*
X129543849Y-81455310D01*
X129537219Y-81452949D01*
X129530231Y-81452116D01*
X129530228Y-81452115D01*
X129414655Y-81438334D01*
X129367357Y-81432694D01*
X129360354Y-81433430D01*
X129360353Y-81433430D01*
X129315958Y-81438096D01*
X129197228Y-81450575D01*
X129187071Y-81454033D01*
X129041956Y-81503434D01*
X129041953Y-81503435D01*
X129035289Y-81505704D01*
X128889588Y-81595340D01*
X128884557Y-81600267D01*
X128884554Y-81600269D01*
X128877689Y-81606992D01*
X128767366Y-81715028D01*
X128763547Y-81720953D01*
X128763546Y-81720955D01*
X128758135Y-81729352D01*
X128674698Y-81858820D01*
X128672287Y-81865443D01*
X128672286Y-81865446D01*
X128618600Y-82012947D01*
X128618599Y-82012952D01*
X128616190Y-82019570D01*
X128594750Y-82189286D01*
X125302788Y-82189286D01*
X125315999Y-82139980D01*
X125315999Y-82139978D01*
X125317423Y-82134665D01*
X125336204Y-81920000D01*
X125317423Y-81705335D01*
X125313833Y-81691938D01*
X125263075Y-81502503D01*
X125263074Y-81502501D01*
X125261652Y-81497193D01*
X125239914Y-81450575D01*
X125172910Y-81306885D01*
X125172907Y-81306880D01*
X125170584Y-81301898D01*
X125152307Y-81275795D01*
X125050146Y-81129894D01*
X125050144Y-81129891D01*
X125046987Y-81125383D01*
X124894617Y-80973013D01*
X124890109Y-80969856D01*
X124890106Y-80969854D01*
X124722611Y-80852573D01*
X124722609Y-80852572D01*
X124718102Y-80849416D01*
X124713120Y-80847093D01*
X124713115Y-80847090D01*
X124527789Y-80760671D01*
X124527787Y-80760670D01*
X124522807Y-80758348D01*
X124517499Y-80756926D01*
X124517497Y-80756925D01*
X124319980Y-80704001D01*
X124319978Y-80704001D01*
X124314665Y-80702577D01*
X124100000Y-80683796D01*
X123885335Y-80702577D01*
X123880022Y-80704001D01*
X123880020Y-80704001D01*
X123682503Y-80756925D01*
X123682501Y-80756926D01*
X123677193Y-80758348D01*
X123672213Y-80760670D01*
X123672211Y-80760671D01*
X123486885Y-80847090D01*
X123486880Y-80847093D01*
X123481898Y-80849416D01*
X123477391Y-80852572D01*
X123477389Y-80852573D01*
X123309894Y-80969854D01*
X123309891Y-80969856D01*
X123305383Y-80973013D01*
X123153013Y-81125383D01*
X123149856Y-81129891D01*
X123149854Y-81129894D01*
X123047693Y-81275795D01*
X123029416Y-81301898D01*
X123027093Y-81306880D01*
X123027090Y-81306885D01*
X122960086Y-81450575D01*
X122938348Y-81497193D01*
X122936926Y-81502501D01*
X122936925Y-81502503D01*
X122886167Y-81691938D01*
X122882577Y-81705335D01*
X122863796Y-81920000D01*
X122882577Y-82134665D01*
X122884001Y-82139978D01*
X122884001Y-82139980D01*
X122899092Y-82196299D01*
X122938348Y-82342807D01*
X122940670Y-82347787D01*
X122940671Y-82347789D01*
X123027090Y-82533115D01*
X123027093Y-82533120D01*
X123029416Y-82538102D01*
X123032572Y-82542609D01*
X123032573Y-82542611D01*
X123138036Y-82693227D01*
X123153013Y-82714617D01*
X123305383Y-82866987D01*
X123309891Y-82870144D01*
X123309894Y-82870146D01*
X123477389Y-82987427D01*
X123481898Y-82990584D01*
X123486880Y-82992907D01*
X123486885Y-82992910D01*
X123664654Y-83075805D01*
X123717939Y-83122723D01*
X123737400Y-83191000D01*
X123716858Y-83258960D01*
X123664654Y-83304195D01*
X123486885Y-83387090D01*
X123486880Y-83387093D01*
X123481898Y-83389416D01*
X123477391Y-83392572D01*
X123477389Y-83392573D01*
X123309894Y-83509854D01*
X123309891Y-83509856D01*
X123305383Y-83513013D01*
X123153013Y-83665383D01*
X123149856Y-83669891D01*
X123149854Y-83669894D01*
X123032573Y-83837389D01*
X123029416Y-83841898D01*
X123027093Y-83846880D01*
X123027090Y-83846885D01*
X122952431Y-84006992D01*
X122938348Y-84037193D01*
X122882577Y-84245335D01*
X122863796Y-84460000D01*
X121781500Y-84460000D01*
X121781500Y-80007500D01*
X121801502Y-79939379D01*
X121855158Y-79892886D01*
X121907500Y-79881500D01*
X153372500Y-79881500D01*
X153440621Y-79901502D01*
G37*
%TD.AperFunction*%
%TD*%
M02*
