%TF.GenerationSoftware,KiCad,Pcbnew,(6.0.8)*%
%TF.CreationDate,2023-01-31T16:58:12-08:00*%
%TF.ProjectId,Microwave Sensor v2,4d696372-6f77-4617-9665-2053656e736f,rev?*%
%TF.SameCoordinates,Original*%
%TF.FileFunction,Copper,L1,Top*%
%TF.FilePolarity,Positive*%
%FSLAX46Y46*%
G04 Gerber Fmt 4.6, Leading zero omitted, Abs format (unit mm)*
G04 Created by KiCad (PCBNEW (6.0.8)) date 2023-01-31 16:58:12*
%MOMM*%
%LPD*%
G01*
G04 APERTURE LIST*
G04 Aperture macros list*
%AMRoundRect*
0 Rectangle with rounded corners*
0 $1 Rounding radius*
0 $2 $3 $4 $5 $6 $7 $8 $9 X,Y pos of 4 corners*
0 Add a 4 corners polygon primitive as box body*
4,1,4,$2,$3,$4,$5,$6,$7,$8,$9,$2,$3,0*
0 Add four circle primitives for the rounded corners*
1,1,$1+$1,$2,$3*
1,1,$1+$1,$4,$5*
1,1,$1+$1,$6,$7*
1,1,$1+$1,$8,$9*
0 Add four rect primitives between the rounded corners*
20,1,$1+$1,$2,$3,$4,$5,0*
20,1,$1+$1,$4,$5,$6,$7,0*
20,1,$1+$1,$6,$7,$8,$9,0*
20,1,$1+$1,$8,$9,$2,$3,0*%
G04 Aperture macros list end*
%TA.AperFunction,SMDPad,CuDef*%
%ADD10RoundRect,0.155000X0.155000X-0.212500X0.155000X0.212500X-0.155000X0.212500X-0.155000X-0.212500X0*%
%TD*%
%TA.AperFunction,SMDPad,CuDef*%
%ADD11RoundRect,0.155000X-0.212500X-0.155000X0.212500X-0.155000X0.212500X0.155000X-0.212500X0.155000X0*%
%TD*%
%TA.AperFunction,ComponentPad*%
%ADD12R,1.700000X1.700000*%
%TD*%
%TA.AperFunction,ComponentPad*%
%ADD13O,1.700000X1.700000*%
%TD*%
%TA.AperFunction,SMDPad,CuDef*%
%ADD14R,1.500000X1.500000*%
%TD*%
%TA.AperFunction,SMDPad,CuDef*%
%ADD15R,1.000000X0.950000*%
%TD*%
%TA.AperFunction,SMDPad,CuDef*%
%ADD16RoundRect,0.155000X-0.155000X0.212500X-0.155000X-0.212500X0.155000X-0.212500X0.155000X0.212500X0*%
%TD*%
%TA.AperFunction,SMDPad,CuDef*%
%ADD17R,1.200000X0.600000*%
%TD*%
%TA.AperFunction,SMDPad,CuDef*%
%ADD18RoundRect,0.160000X-0.160000X0.197500X-0.160000X-0.197500X0.160000X-0.197500X0.160000X0.197500X0*%
%TD*%
%TA.AperFunction,SMDPad,CuDef*%
%ADD19RoundRect,0.160000X-0.197500X-0.160000X0.197500X-0.160000X0.197500X0.160000X-0.197500X0.160000X0*%
%TD*%
%TA.AperFunction,SMDPad,CuDef*%
%ADD20RoundRect,0.160000X0.197500X0.160000X-0.197500X0.160000X-0.197500X-0.160000X0.197500X-0.160000X0*%
%TD*%
%TA.AperFunction,SMDPad,CuDef*%
%ADD21C,0.250000*%
%TD*%
%TA.AperFunction,SMDPad,CuDef*%
%ADD22R,0.400000X1.500000*%
%TD*%
%TA.AperFunction,SMDPad,CuDef*%
%ADD23R,0.550000X0.400000*%
%TD*%
%TA.AperFunction,ViaPad*%
%ADD24C,0.381000*%
%TD*%
%TA.AperFunction,ViaPad*%
%ADD25C,0.762000*%
%TD*%
%TA.AperFunction,Conductor*%
%ADD26C,0.127000*%
%TD*%
%TA.AperFunction,Conductor*%
%ADD27C,0.254000*%
%TD*%
%TA.AperFunction,Conductor*%
%ADD28C,0.250000*%
%TD*%
G04 APERTURE END LIST*
D10*
%TO.P,C15,1*%
%TO.N,Net-(C11-Pad1)*%
X140400000Y-88867500D03*
%TO.P,C15,2*%
%TO.N,GND*%
X140400000Y-87732500D03*
%TD*%
D11*
%TO.P,C4,1*%
%TO.N,GND*%
X134241859Y-94375000D03*
%TO.P,C4,2*%
%TO.N,/Vdd*%
X135376859Y-94375000D03*
%TD*%
D12*
%TO.P,J4,1,Pin_1*%
%TO.N,Net-(J4-Pad1)*%
X140475000Y-105700000D03*
D13*
%TO.P,J4,2,Pin_2*%
%TO.N,Net-(J4-Pad2)*%
X137935000Y-105700000D03*
%TD*%
D14*
%TO.P,TP6,1,1*%
%TO.N,Net-(IC2-Pad11)*%
X136475000Y-86900000D03*
%TD*%
D15*
%TO.P,Y1,1,XTAL_1*%
%TO.N,Net-(C8-Pad1)*%
X144825000Y-97750000D03*
%TO.P,Y1,2,CASE_1*%
%TO.N,GND*%
X142975000Y-97750000D03*
%TO.P,Y1,3,XTAL_2*%
%TO.N,Net-(C9-Pad2)*%
X142975000Y-99300000D03*
%TO.P,Y1,4,CASE_2*%
%TO.N,GND*%
X144825000Y-99300000D03*
%TD*%
D16*
%TO.P,C1,1*%
%TO.N,GND*%
X131200000Y-95632500D03*
%TO.P,C1,2*%
%TO.N,/VinF*%
X131200000Y-96767500D03*
%TD*%
D12*
%TO.P,J2,1,Pin_1*%
%TO.N,Net-(IC2-Pad5)*%
X124100000Y-87000000D03*
D13*
%TO.P,J2,2,Pin_2*%
%TO.N,Net-(IC2-Pad6)*%
X124100000Y-84460000D03*
%TO.P,J2,3,Pin_3*%
%TO.N,Net-(IC2-Pad7)*%
X124100000Y-81920000D03*
%TD*%
D10*
%TO.P,C14,1*%
%TO.N,Net-(C10-Pad1)*%
X139600000Y-83851250D03*
%TO.P,C14,2*%
%TO.N,GND*%
X139600000Y-82716250D03*
%TD*%
D11*
%TO.P,C10,1*%
%TO.N,Net-(C10-Pad1)*%
X140309359Y-86275000D03*
%TO.P,C10,2*%
%TO.N,/IFIAI*%
X141444359Y-86275000D03*
%TD*%
D17*
%TO.P,IC1,1,IN*%
%TO.N,/VinF*%
X131400000Y-98750000D03*
%TO.P,IC1,2,GND*%
%TO.N,GND*%
X131400000Y-99700000D03*
%TO.P,IC1,3,EN*%
%TO.N,Net-(IC1-Pad3)*%
X131400000Y-100650000D03*
%TO.P,IC1,4,N/C*%
%TO.N,GND*%
X133900000Y-100650000D03*
%TO.P,IC1,5,OUT*%
%TO.N,/Vdd*%
X133900000Y-98750000D03*
%TD*%
D16*
%TO.P,C2,1*%
%TO.N,GND*%
X129800000Y-95632500D03*
%TO.P,C2,2*%
%TO.N,/VinF*%
X129800000Y-96767500D03*
%TD*%
D12*
%TO.P,J3,1,Pin_1*%
%TO.N,Net-(J3-Pad1)*%
X151100000Y-100000000D03*
D13*
%TO.P,J3,2,Pin_2*%
%TO.N,Net-(J3-Pad2)*%
X151100000Y-102540000D03*
%TO.P,J3,3,Pin_3*%
%TO.N,Net-(J3-Pad3)*%
X151100000Y-105080000D03*
%TD*%
D16*
%TO.P,C3,1*%
%TO.N,/Vdd*%
X136000000Y-98732500D03*
%TO.P,C3,2*%
%TO.N,GND*%
X136000000Y-99867500D03*
%TD*%
D11*
%TO.P,C13,1*%
%TO.N,Net-(C13-Pad1)*%
X143509359Y-89675000D03*
%TO.P,C13,2*%
%TO.N,/IFQAIX*%
X144644359Y-89675000D03*
%TD*%
D18*
%TO.P,R1,1*%
%TO.N,/VinF*%
X129000000Y-100302500D03*
%TO.P,R1,2*%
%TO.N,Net-(IC1-Pad3)*%
X129000000Y-101497500D03*
%TD*%
D14*
%TO.P,TP4,1,1*%
%TO.N,Net-(TP4-Pad1)*%
X131700000Y-88400000D03*
%TD*%
%TO.P,TP2,1,1*%
%TO.N,/VinF*%
X127600000Y-105200000D03*
%TD*%
D19*
%TO.P,R4,1*%
%TO.N,/Vdd*%
X134402500Y-91500000D03*
%TO.P,R4,2*%
%TO.N,Net-(R4-Pad2)*%
X135597500Y-91500000D03*
%TD*%
D20*
%TO.P,R8,1*%
%TO.N,Net-(IC2-Pad11)*%
X137972500Y-89100000D03*
%TO.P,R8,2*%
%TO.N,GND*%
X136777500Y-89100000D03*
%TD*%
D14*
%TO.P,TP5,1,1*%
%TO.N,Net-(IC2-Pad12)*%
X132400000Y-82500000D03*
%TD*%
D20*
%TO.P,R5,1*%
%TO.N,Net-(J4-Pad2)*%
X134495000Y-105700000D03*
%TO.P,R5,2*%
%TO.N,/VinF*%
X133300000Y-105700000D03*
%TD*%
D12*
%TO.P,J1,1,Pin_1*%
%TO.N,Net-(FB1-Pad1)*%
X125325000Y-98750000D03*
D13*
%TO.P,J1,2,Pin_2*%
%TO.N,GND*%
X125325000Y-101290000D03*
%TD*%
D14*
%TO.P,TP8,1,1*%
%TO.N,Net-(C9-Pad2)*%
X146475000Y-102900000D03*
%TD*%
D11*
%TO.P,C11,1*%
%TO.N,Net-(C11-Pad1)*%
X140409359Y-90275000D03*
%TO.P,C11,2*%
%TO.N,/IFIAIX*%
X141544359Y-90275000D03*
%TD*%
D21*
%TO.P,U1,A1,GND*%
%TO.N,GND*%
X138176859Y-94650000D03*
%TO.P,U1,A2,VDD_RF*%
%TO.N,/Vdd*%
X138176859Y-94150000D03*
%TO.P,U1,A3,GND*%
%TO.N,GND*%
X138176859Y-93650000D03*
%TO.P,U1,A4,GND*%
X138176859Y-92900000D03*
%TO.P,U1,A5,SPIRST_N*%
%TO.N,Net-(R4-Pad2)*%
X138176859Y-92400000D03*
%TO.P,U1,A6,GND*%
%TO.N,GND*%
X138176859Y-91900000D03*
%TO.P,U1,B1,QS3*%
%TO.N,unconnected-(U1-PadB1)*%
X138676859Y-94650000D03*
%TO.P,U1,B2,VDD_RF*%
%TO.N,/Vdd*%
X138676859Y-94150000D03*
%TO.P,U1,B3,GND*%
%TO.N,GND*%
X138676859Y-93650000D03*
%TO.P,U1,B4,GND*%
X138676859Y-92900000D03*
%TO.P,U1,B5,SPIDI*%
%TO.N,Net-(IC2-Pad11)*%
X138676859Y-92400000D03*
%TO.P,U1,B6,SPIDO*%
%TO.N,Net-(TP4-Pad1)*%
X138676859Y-91900000D03*
%TO.P,U1,C1,VTUNE*%
%TO.N,unconnected-(U1-PadC1)*%
X139176859Y-94650000D03*
%TO.P,U1,C6,SPICLK*%
%TO.N,Net-(IC2-Pad12)*%
X139176859Y-91900000D03*
%TO.P,U1,D1,PDET*%
%TO.N,Net-(R9-Pad2)*%
X139676859Y-94650000D03*
%TO.P,U1,D6,SPICS*%
%TO.N,Net-(IC2-Pad10)*%
X139676859Y-91900000D03*
%TO.P,U1,E1,TDET*%
%TO.N,Net-(R10-Pad1)*%
X140176859Y-94650000D03*
%TO.P,U1,E6,IFIAO*%
%TO.N,Net-(C10-Pad1)*%
X140176859Y-91900000D03*
%TO.P,U1,F1,DIV_O*%
%TO.N,Net-(J3-Pad3)*%
X140676859Y-94650000D03*
%TO.P,U1,F6,IFIAOX*%
%TO.N,Net-(C11-Pad1)*%
X140676859Y-91900000D03*
%TO.P,U1,G1,PLL_TRIG*%
%TO.N,GND*%
X141176859Y-94650000D03*
%TO.P,U1,G6,IFIAIX*%
%TO.N,/IFIAIX*%
X141176859Y-91900000D03*
%TO.P,U1,H1,XOSC_AO*%
%TO.N,Net-(C9-Pad2)*%
X141676859Y-94650000D03*
%TO.P,U1,H6,IFIAI*%
%TO.N,/IFIAI*%
X141676239Y-91900000D03*
%TO.P,U1,J1,XOSC_AI*%
%TO.N,Net-(C8-Pad1)*%
X142176859Y-94650000D03*
%TO.P,U1,J6,IFQAO*%
%TO.N,Net-(C12-Pad1)*%
X142176859Y-91900000D03*
%TO.P,U1,K1,IFQ*%
%TO.N,Net-(J3-Pad2)*%
X142676859Y-94650000D03*
%TO.P,U1,K6,IFQAOX*%
%TO.N,Net-(C13-Pad1)*%
X142675000Y-91900000D03*
%TO.P,U1,L1,IFI*%
%TO.N,Net-(J3-Pad1)*%
X143176859Y-94650000D03*
%TO.P,U1,L6,IFQAIX*%
%TO.N,/IFQAIX*%
X143174381Y-91900000D03*
%TO.P,U1,M1,QS4*%
%TO.N,GND*%
X143676859Y-94650000D03*
%TO.P,U1,M2,VDD_PLL*%
%TO.N,/Vdd*%
X143676859Y-94150000D03*
%TO.P,U1,M3,GND*%
%TO.N,GND*%
X143676859Y-93650000D03*
%TO.P,U1,M4,GND*%
X143676859Y-92900000D03*
%TO.P,U1,M5,IFQAI*%
%TO.N,/IFQAI*%
X143676859Y-92400000D03*
%TO.P,U1,M6,QS1*%
%TO.N,/Vdd*%
X143676859Y-91900000D03*
%TO.P,U1,N1,GND*%
%TO.N,GND*%
X144176859Y-94650000D03*
%TO.P,U1,N2,VDD_PLL*%
%TO.N,/Vdd*%
X144176859Y-94150000D03*
%TO.P,U1,N3,GND*%
%TO.N,GND*%
X144176859Y-93650000D03*
%TO.P,U1,N4,GND*%
X144176859Y-92900000D03*
%TO.P,U1,N5,QS2*%
X144176859Y-92400000D03*
%TO.P,U1,N6,GND*%
X144173142Y-91900000D03*
%TD*%
D11*
%TO.P,C8,1*%
%TO.N,Net-(C8-Pad1)*%
X147407500Y-97800000D03*
%TO.P,C8,2*%
%TO.N,GND*%
X148542500Y-97800000D03*
%TD*%
%TO.P,C5,1*%
%TO.N,/Vdd*%
X146609359Y-94475000D03*
%TO.P,C5,2*%
%TO.N,GND*%
X147744359Y-94475000D03*
%TD*%
D20*
%TO.P,R6,1*%
%TO.N,Net-(J4-Pad1)*%
X134497500Y-104200000D03*
%TO.P,R6,2*%
%TO.N,/VinF*%
X133302500Y-104200000D03*
%TD*%
D11*
%TO.P,C17,1*%
%TO.N,Net-(C13-Pad1)*%
X143532500Y-88100000D03*
%TO.P,C17,2*%
%TO.N,GND*%
X144667500Y-88100000D03*
%TD*%
D22*
%TO.P,U2,1,In1*%
%TO.N,Net-(R9-Pad2)*%
X138350000Y-101830000D03*
%TO.P,U2,2,Ref1*%
%TO.N,/Vdd*%
X139000000Y-101830000D03*
%TO.P,U2,3,Out2*%
%TO.N,Net-(J4-Pad1)*%
X139650000Y-101830000D03*
%TO.P,U2,4,In2*%
%TO.N,Net-(R10-Pad1)*%
X139650000Y-99170000D03*
%TO.P,U2,5,Ref2*%
%TO.N,/Vdd*%
X139000000Y-99170000D03*
%TO.P,U2,6,Out1*%
%TO.N,Net-(J4-Pad2)*%
X138350000Y-99170000D03*
%TD*%
D23*
%TO.P,FB1,1,1*%
%TO.N,Net-(FB1-Pad1)*%
X128050000Y-98700000D03*
%TO.P,FB1,2,2*%
%TO.N,/VinF*%
X128950000Y-98700000D03*
%TD*%
D10*
%TO.P,C9,1*%
%TO.N,GND*%
X142975000Y-102867500D03*
%TO.P,C9,2*%
%TO.N,Net-(C9-Pad2)*%
X142975000Y-101732500D03*
%TD*%
D14*
%TO.P,TP3,1,1*%
%TO.N,Net-(C8-Pad1)*%
X150375000Y-95100000D03*
%TD*%
D24*
%TO.N,*%
X132900000Y-98700000D03*
%TO.N,GND*%
X137200000Y-93000000D03*
X139600000Y-81683750D03*
X144976859Y-92975000D03*
X137300000Y-91200000D03*
X143975000Y-95500000D03*
X135300000Y-89200000D03*
X145376859Y-93575000D03*
X142975000Y-104100000D03*
X142300000Y-96800000D03*
X133900000Y-99900000D03*
X148575000Y-98900000D03*
X132600000Y-101300000D03*
D25*
X135262000Y-82200000D03*
D24*
X139500000Y-97300000D03*
X137476859Y-95375000D03*
X129800000Y-94500000D03*
X132800000Y-99700000D03*
D25*
X129362000Y-82200000D03*
D24*
X145875000Y-100300000D03*
X147776859Y-95575000D03*
X141200000Y-95500000D03*
X141800000Y-87700000D03*
D25*
X135600000Y-93000000D03*
D24*
X137100000Y-93500000D03*
X144876859Y-91175000D03*
X144876859Y-95375000D03*
X146100000Y-88100000D03*
D25*
X131300000Y-92700000D03*
X135500000Y-101600000D03*
D24*
X132876859Y-94375000D03*
X143200000Y-86100000D03*
X139375000Y-93500000D03*
X145076859Y-92175000D03*
X131200000Y-94500000D03*
D25*
%TO.N,/VinF*%
X129662000Y-89800000D03*
D24*
%TO.N,/Vdd*%
X133700000Y-95600000D03*
X143676859Y-91075000D03*
X142975000Y-94100000D03*
X136876859Y-94375000D03*
X139000000Y-98100000D03*
X139000000Y-103400000D03*
X145076859Y-94475000D03*
D25*
X133562000Y-89200000D03*
D24*
X140375000Y-94100000D03*
D25*
X135000000Y-97600000D03*
D24*
%TO.N,Net-(C12-Pad1)*%
X141775000Y-92600000D03*
%TO.N,/IFQAI*%
X142875000Y-92500000D03*
D25*
%TO.N,Net-(IC2-Pad12)*%
X132800000Y-84600000D03*
D24*
X139075000Y-91100000D03*
%TO.N,Net-(J3-Pad1)*%
X142775000Y-95500000D03*
%TO.N,Net-(IC2-Pad11)*%
X139475000Y-92500000D03*
X139000000Y-85700000D03*
%TO.N,Net-(IC2-Pad10)*%
X140175000Y-92500000D03*
%TO.N,Net-(J3-Pad2)*%
X141875000Y-93700000D03*
%TO.N,Net-(J3-Pad3)*%
X140700000Y-96500000D03*
%TO.N,Net-(J4-Pad2)*%
X137900000Y-97700000D03*
%TO.N,Net-(R9-Pad2)*%
X137100000Y-96500000D03*
X137000000Y-103000000D03*
%TO.N,Net-(R10-Pad1)*%
X139600000Y-100700000D03*
%TO.N,Net-(TP4-Pad1)*%
X138275000Y-91100000D03*
D25*
X132900000Y-86300000D03*
%TD*%
D26*
%TO.N,GND*%
X141767500Y-87732500D02*
X141800000Y-87700000D01*
X142975000Y-102867500D02*
X142975000Y-104100000D01*
X142300000Y-97075000D02*
X142975000Y-97750000D01*
X144176859Y-92400000D02*
X144851859Y-92400000D01*
X139600000Y-82716250D02*
X139600000Y-81683750D01*
X142300000Y-96800000D02*
X142300000Y-97075000D01*
X144176859Y-92900000D02*
X143676859Y-92900000D01*
X144876859Y-95375000D02*
X144876859Y-95350000D01*
X144851859Y-92400000D02*
X145076859Y-92175000D01*
X139375000Y-93500000D02*
X139276859Y-93500000D01*
X136677500Y-89200000D02*
X136777500Y-89100000D01*
X129800000Y-95632500D02*
X129800000Y-94500000D01*
X144976859Y-92975000D02*
X144901859Y-92900000D01*
X132876859Y-94375000D02*
X134241859Y-94375000D01*
X143676859Y-93650000D02*
X144176859Y-93650000D01*
X148542500Y-98867500D02*
X148575000Y-98900000D01*
X137476859Y-95375000D02*
X137476859Y-95350000D01*
X148542500Y-97800000D02*
X148542500Y-98867500D01*
X139276859Y-93500000D02*
X138676859Y-92900000D01*
X137250000Y-93650000D02*
X138176859Y-93650000D01*
X143676859Y-94650000D02*
X143676859Y-95201859D01*
X141200000Y-94673141D02*
X141176859Y-94650000D01*
X131200000Y-95632500D02*
X131200000Y-94500000D01*
X144173142Y-91878717D02*
X144876859Y-91175000D01*
X135300000Y-89200000D02*
X136677500Y-89200000D01*
X137200000Y-93000000D02*
X137300000Y-92900000D01*
X144901859Y-92900000D02*
X144176859Y-92900000D01*
X137300000Y-91200000D02*
X137476859Y-91200000D01*
X144176859Y-93650000D02*
X145301859Y-93650000D01*
X137100000Y-93500000D02*
X137250000Y-93650000D01*
X137300000Y-92900000D02*
X138176859Y-92900000D01*
X137476859Y-91200000D02*
X138176859Y-91900000D01*
X137476859Y-95350000D02*
X138176859Y-94650000D01*
X138826859Y-93500000D02*
X138676859Y-93650000D01*
X147744359Y-94475000D02*
X147744359Y-95542500D01*
X144876859Y-95350000D02*
X144176859Y-94650000D01*
X147744359Y-95542500D02*
X147776859Y-95575000D01*
X140400000Y-87732500D02*
X141767500Y-87732500D01*
X144173142Y-91900000D02*
X144173142Y-91878717D01*
X144667500Y-88100000D02*
X146100000Y-88100000D01*
X145301859Y-93650000D02*
X145376859Y-93575000D01*
X144875000Y-99300000D02*
X145875000Y-100300000D01*
X139375000Y-93500000D02*
X138826859Y-93500000D01*
X143676859Y-95201859D02*
X143975000Y-95500000D01*
X141200000Y-95500000D02*
X141200000Y-94673141D01*
X144825000Y-99300000D02*
X144875000Y-99300000D01*
%TO.N,/VinF*%
X128950000Y-100252500D02*
X128950000Y-99250000D01*
X133302500Y-104200000D02*
X129800000Y-104200000D01*
D27*
X129662000Y-89800000D02*
X128800000Y-90662000D01*
X128800000Y-90662000D02*
X128800000Y-98550000D01*
D26*
X127850000Y-100350000D02*
X127850000Y-102250000D01*
X131300000Y-105700000D02*
X129800000Y-104200000D01*
X129900000Y-104200000D02*
X128900000Y-105200000D01*
X133300000Y-105700000D02*
X131300000Y-105700000D01*
X129800000Y-104200000D02*
X127850000Y-102250000D01*
X129000000Y-100302500D02*
X128950000Y-100252500D01*
X128950000Y-99150000D02*
X128950000Y-98700000D01*
X128950000Y-99250000D02*
X128950000Y-99150000D01*
X128950000Y-99250000D02*
X127850000Y-100350000D01*
X128900000Y-105200000D02*
X127600000Y-105200000D01*
X128950000Y-98700000D02*
X128800000Y-98550000D01*
X129900000Y-104200000D02*
X129800000Y-104200000D01*
%TO.N,/Vdd*%
X143676859Y-94150000D02*
X144176859Y-94150000D01*
X145076859Y-94475000D02*
X146609359Y-94475000D01*
X136876859Y-94375000D02*
X137101859Y-94150000D01*
X142975000Y-94100000D02*
X143626859Y-94100000D01*
X134402500Y-91500000D02*
X134402500Y-90040500D01*
X136876859Y-94375000D02*
X135376859Y-94375000D01*
X134402500Y-90040500D02*
X133562000Y-89200000D01*
X138676859Y-94150000D02*
X140325000Y-94150000D01*
X143676859Y-91900000D02*
X143676859Y-91075000D01*
X140325000Y-94150000D02*
X140375000Y-94100000D01*
X139000000Y-99170000D02*
X139000000Y-98100000D01*
X145076859Y-94475000D02*
X144776859Y-94175000D01*
X144201859Y-94175000D02*
X144176859Y-94150000D01*
X143626859Y-94100000D02*
X143676859Y-94150000D01*
X137101859Y-94150000D02*
X138176859Y-94150000D01*
X139000000Y-101830000D02*
X139000000Y-103400000D01*
X144776859Y-94175000D02*
X144201859Y-94175000D01*
%TO.N,Net-(C8-Pad1)*%
X147407500Y-97267500D02*
X149575000Y-95100000D01*
X142176859Y-94650000D02*
X142176859Y-95801859D01*
X142975000Y-96600000D02*
X144075000Y-96600000D01*
X144075000Y-96600000D02*
X144825000Y-97350000D01*
X149575000Y-95100000D02*
X150375000Y-95100000D01*
X144825000Y-97750000D02*
X147357500Y-97750000D01*
X144825000Y-97350000D02*
X144825000Y-97750000D01*
X142176859Y-95801859D02*
X142975000Y-96600000D01*
X147407500Y-97800000D02*
X147407500Y-97267500D01*
X147357500Y-97750000D02*
X147407500Y-97800000D01*
%TO.N,Net-(C9-Pad2)*%
X145675000Y-102900000D02*
X146475000Y-102900000D01*
X142975000Y-100200000D02*
X142975000Y-101732500D01*
X141676859Y-94650000D02*
X141676859Y-98001859D01*
X141676859Y-98001859D02*
X142975000Y-99300000D01*
X142975000Y-100200000D02*
X145675000Y-102900000D01*
X142975000Y-99300000D02*
X142975000Y-100200000D01*
%TO.N,Net-(C10-Pad1)*%
X140309359Y-86275000D02*
X140309359Y-84560609D01*
X139576859Y-90975000D02*
X139576859Y-87007500D01*
X140176859Y-91900000D02*
X140176859Y-91575000D01*
X140176859Y-91575000D02*
X139576859Y-90975000D01*
X140309359Y-84560609D02*
X139600000Y-83851250D01*
X139576859Y-87007500D02*
X140309359Y-86275000D01*
%TO.N,/IFIAI*%
X142376859Y-90675000D02*
X141676239Y-91375620D01*
X141444359Y-86275000D02*
X141576859Y-86275000D01*
X141576859Y-86275000D02*
X142376859Y-87075000D01*
X142376859Y-88175000D02*
X142376859Y-90675000D01*
X141676239Y-91375620D02*
X141676239Y-91900000D01*
X142376859Y-87075000D02*
X142376859Y-88175000D01*
%TO.N,/IFIAIX*%
X141176859Y-91900000D02*
X141176859Y-90642500D01*
X141176859Y-90642500D02*
X141544359Y-90275000D01*
%TO.N,Net-(C12-Pad1)*%
X142175000Y-92200000D02*
X142175000Y-92100000D01*
X141775000Y-92600000D02*
X142175000Y-92200000D01*
X142176859Y-92098141D02*
X142176859Y-91900000D01*
X142175000Y-92100000D02*
X142176859Y-92098141D01*
%TO.N,/IFQAI*%
X142975000Y-92400000D02*
X142875000Y-92500000D01*
X143676859Y-92400000D02*
X142975000Y-92400000D01*
%TO.N,/IFQAIX*%
X144076859Y-90375000D02*
X144644359Y-89807500D01*
X143725613Y-90375000D02*
X144076859Y-90375000D01*
X143176859Y-91075000D02*
X143176859Y-90923754D01*
X143176859Y-90923754D02*
X143725613Y-90375000D01*
X144644359Y-89807500D02*
X144644359Y-89675000D01*
X143174381Y-91900000D02*
X143174381Y-91077478D01*
X143174381Y-91077478D02*
X143176859Y-91075000D01*
%TO.N,Net-(IC1-Pad3)*%
X129000000Y-101497500D02*
X130802500Y-101497500D01*
X131400000Y-100900000D02*
X131400000Y-100650000D01*
X130802500Y-101497500D02*
X131400000Y-100900000D01*
%TO.N,Net-(IC2-Pad12)*%
X139176859Y-91201859D02*
X139075000Y-91100000D01*
X139176859Y-91900000D02*
X139176859Y-91201859D01*
X132800000Y-84600000D02*
X132400000Y-84200000D01*
X132400000Y-84200000D02*
X132400000Y-82500000D01*
%TO.N,Net-(J3-Pad1)*%
X143176859Y-95098141D02*
X143176859Y-94650000D01*
X142775000Y-95500000D02*
X143176859Y-95098141D01*
%TO.N,Net-(IC2-Pad11)*%
X138700000Y-87670000D02*
X137972500Y-88397500D01*
X137972500Y-88397500D02*
X136475000Y-86900000D01*
X139375000Y-92400000D02*
X139475000Y-92500000D01*
X137972500Y-89100000D02*
X137972500Y-88397500D01*
X138676859Y-92400000D02*
X139375000Y-92400000D01*
X138700000Y-86000000D02*
X138700000Y-87670000D01*
X139000000Y-85700000D02*
X138700000Y-86000000D01*
%TO.N,Net-(IC2-Pad10)*%
X139676859Y-91900000D02*
X139676859Y-92050613D01*
X139676859Y-92050613D02*
X140126246Y-92500000D01*
X140126246Y-92500000D02*
X140175000Y-92500000D01*
%TO.N,Net-(J3-Pad2)*%
X142676859Y-94501859D02*
X141875000Y-93700000D01*
X142676859Y-94650000D02*
X142676859Y-94501859D01*
%TO.N,Net-(J3-Pad3)*%
X140676859Y-94650000D02*
X140676859Y-96476859D01*
X140676859Y-96476859D02*
X140700000Y-96500000D01*
D28*
%TO.N,Net-(C11-Pad1)*%
X140409359Y-88876859D02*
X140400000Y-88867500D01*
D26*
X140676859Y-91900000D02*
X140676859Y-90442500D01*
X140676859Y-90442500D02*
X140509359Y-90275000D01*
X140409359Y-90275000D02*
X140409359Y-88876859D01*
%TO.N,Net-(C13-Pad1)*%
X143509359Y-89742500D02*
X142776859Y-90475000D01*
X142776859Y-90475000D02*
X142776859Y-90875000D01*
X142776859Y-90875000D02*
X142675000Y-90976859D01*
X143509359Y-89675000D02*
X143509359Y-89742500D01*
X142675000Y-90976859D02*
X142675000Y-91900000D01*
X143509359Y-89675000D02*
X143509359Y-88123141D01*
X143509359Y-88123141D02*
X143532500Y-88100000D01*
%TO.N,Net-(J4-Pad1)*%
X140475000Y-103975000D02*
X140475000Y-105700000D01*
X140475000Y-102655000D02*
X139650000Y-101830000D01*
X134497500Y-104200000D02*
X140250000Y-104200000D01*
X140475000Y-102655000D02*
X140475000Y-103975000D01*
X140250000Y-104200000D02*
X140475000Y-103975000D01*
%TO.N,Net-(J4-Pad2)*%
X138350000Y-99170000D02*
X138170000Y-99170000D01*
X134495000Y-105700000D02*
X137935000Y-105700000D01*
X138170000Y-99170000D02*
X137900000Y-98900000D01*
X137900000Y-98900000D02*
X137900000Y-97700000D01*
%TO.N,Net-(R4-Pad2)*%
X138176859Y-92400000D02*
X137201859Y-92400000D01*
X135597500Y-91500000D02*
X136301860Y-91500000D01*
X136301860Y-91500000D02*
X136950930Y-92149070D01*
X137201859Y-92400000D02*
X136950930Y-92149070D01*
%TO.N,Net-(R9-Pad2)*%
X137000000Y-103000000D02*
X138170000Y-101830000D01*
X139676859Y-95176859D02*
X139676859Y-94650000D01*
X138353718Y-96500000D02*
X139676859Y-95176859D01*
X138170000Y-101830000D02*
X138350000Y-101830000D01*
X137100000Y-96500000D02*
X138353718Y-96500000D01*
%TO.N,Net-(R10-Pad1)*%
X140176859Y-98643141D02*
X140176859Y-97123141D01*
X140176859Y-94650000D02*
X140176859Y-97123141D01*
X140176859Y-100123141D02*
X140176859Y-97123141D01*
X139650000Y-99170000D02*
X140176859Y-98643141D01*
X139600000Y-100700000D02*
X140176859Y-100123141D01*
%TO.N,Net-(TP4-Pad1)*%
X132900000Y-86300000D02*
X131700000Y-87500000D01*
X131700000Y-87500000D02*
X131700000Y-88400000D01*
X138676859Y-91501859D02*
X138275000Y-91100000D01*
X138676859Y-91900000D02*
X138676859Y-91501859D01*
%TD*%
%TA.AperFunction,Conductor*%
%TO.N,Net-(FB1-Pad1)*%
G36*
X128106621Y-97120002D02*
G01*
X128153114Y-97173658D01*
X128164500Y-97226000D01*
X128164500Y-98589983D01*
X128165506Y-98597945D01*
X128166500Y-98613738D01*
X128166500Y-98774000D01*
X128146498Y-98842121D01*
X128092842Y-98888614D01*
X128040500Y-98900000D01*
X127285116Y-98900000D01*
X127269877Y-98904475D01*
X127268672Y-98905865D01*
X127267001Y-98913548D01*
X127267001Y-98944669D01*
X127267371Y-98951490D01*
X127272895Y-99002352D01*
X127276521Y-99017603D01*
X127281082Y-99029770D01*
X127286265Y-99100577D01*
X127252345Y-99162946D01*
X127190090Y-99197075D01*
X127163100Y-99200000D01*
X126809000Y-99200000D01*
X126740879Y-99179998D01*
X126694386Y-99126342D01*
X126683000Y-99074000D01*
X126683000Y-99022115D01*
X126678525Y-99006876D01*
X126677135Y-99005671D01*
X126669452Y-99004000D01*
X125197000Y-99004000D01*
X125128879Y-98983998D01*
X125082386Y-98930342D01*
X125071000Y-98878000D01*
X125071000Y-98477885D01*
X125579000Y-98477885D01*
X125583475Y-98493124D01*
X125584865Y-98494329D01*
X125592548Y-98496000D01*
X126664884Y-98496000D01*
X126680123Y-98491525D01*
X126681328Y-98490135D01*
X126682999Y-98482452D01*
X126682999Y-98481885D01*
X127267000Y-98481885D01*
X127271475Y-98497124D01*
X127272865Y-98498329D01*
X127280548Y-98500000D01*
X127831885Y-98500000D01*
X127847124Y-98495525D01*
X127848329Y-98494135D01*
X127850000Y-98486452D01*
X127850000Y-98010116D01*
X127845525Y-97994877D01*
X127844135Y-97993672D01*
X127836452Y-97992001D01*
X127730331Y-97992001D01*
X127723510Y-97992371D01*
X127672648Y-97997895D01*
X127657396Y-98001521D01*
X127536946Y-98046676D01*
X127521351Y-98055214D01*
X127419276Y-98131715D01*
X127406715Y-98144276D01*
X127330214Y-98246351D01*
X127321676Y-98261946D01*
X127276522Y-98382394D01*
X127272895Y-98397649D01*
X127267369Y-98448514D01*
X127267000Y-98455328D01*
X127267000Y-98481885D01*
X126682999Y-98481885D01*
X126682999Y-97855331D01*
X126682629Y-97848510D01*
X126677105Y-97797648D01*
X126673479Y-97782396D01*
X126628324Y-97661946D01*
X126619786Y-97646351D01*
X126543285Y-97544276D01*
X126530724Y-97531715D01*
X126428649Y-97455214D01*
X126413054Y-97446676D01*
X126292606Y-97401522D01*
X126277351Y-97397895D01*
X126226486Y-97392369D01*
X126219672Y-97392000D01*
X125597115Y-97392001D01*
X125581876Y-97396476D01*
X125580671Y-97397866D01*
X125579000Y-97405549D01*
X125579000Y-98477885D01*
X125071000Y-98477885D01*
X125071000Y-97410116D01*
X125066525Y-97394876D01*
X125043488Y-97374914D01*
X125005104Y-97315188D01*
X125000000Y-97279690D01*
X125000000Y-97226000D01*
X125020002Y-97157879D01*
X125073658Y-97111386D01*
X125126000Y-97100000D01*
X128038500Y-97100000D01*
X128106621Y-97120002D01*
G37*
%TD.AperFunction*%
%TD*%
%TA.AperFunction,Conductor*%
%TO.N,/VinF*%
G36*
X128930574Y-96320002D02*
G01*
X128977067Y-96373658D01*
X128987924Y-96437529D01*
X128982463Y-96496962D01*
X128986475Y-96510624D01*
X128987865Y-96511829D01*
X128995548Y-96513500D01*
X131328000Y-96513500D01*
X131396121Y-96533502D01*
X131442614Y-96587158D01*
X131454000Y-96639500D01*
X131454000Y-97620658D01*
X131458271Y-97635203D01*
X131470302Y-97637248D01*
X131483088Y-97634687D01*
X131622589Y-97590971D01*
X131636334Y-97584765D01*
X131760604Y-97509504D01*
X131772473Y-97500197D01*
X131880570Y-97392100D01*
X131881579Y-97393109D01*
X131932626Y-97356654D01*
X132003538Y-97353178D01*
X132065071Y-97388592D01*
X132097690Y-97451652D01*
X132100000Y-97475667D01*
X132100000Y-97816000D01*
X132079998Y-97884121D01*
X132026342Y-97930614D01*
X131974000Y-97942000D01*
X131672115Y-97942000D01*
X131656876Y-97946475D01*
X131655671Y-97947865D01*
X131654000Y-97955548D01*
X131654000Y-98878000D01*
X131633998Y-98946121D01*
X131580342Y-98992614D01*
X131528000Y-99004000D01*
X130310116Y-99004000D01*
X130294877Y-99008475D01*
X130293672Y-99009865D01*
X130292001Y-99017548D01*
X130292001Y-99074000D01*
X130271999Y-99142121D01*
X130218343Y-99188614D01*
X130166001Y-99200000D01*
X129836900Y-99200000D01*
X129768779Y-99179998D01*
X129722286Y-99126342D01*
X129712182Y-99056068D01*
X129718918Y-99029770D01*
X129723478Y-99017605D01*
X129727105Y-99002351D01*
X129732631Y-98951486D01*
X129733000Y-98944672D01*
X129733000Y-98918115D01*
X129728525Y-98902876D01*
X129727135Y-98901671D01*
X129719452Y-98900000D01*
X128876000Y-98900000D01*
X128807879Y-98879998D01*
X128761386Y-98826342D01*
X128750000Y-98774000D01*
X128750000Y-98481885D01*
X129150000Y-98481885D01*
X129154475Y-98497124D01*
X129155865Y-98498329D01*
X129163548Y-98500000D01*
X129714884Y-98500000D01*
X129730123Y-98495525D01*
X129731328Y-98494135D01*
X129732999Y-98486452D01*
X129732999Y-98477885D01*
X130292000Y-98477885D01*
X130296475Y-98493124D01*
X130297865Y-98494329D01*
X130305548Y-98496000D01*
X131127885Y-98496000D01*
X131143124Y-98491525D01*
X131144329Y-98490135D01*
X131146000Y-98482452D01*
X131146000Y-97960116D01*
X131141525Y-97944877D01*
X131140135Y-97943672D01*
X131132452Y-97942001D01*
X130755331Y-97942001D01*
X130748510Y-97942371D01*
X130697648Y-97947895D01*
X130682396Y-97951521D01*
X130561946Y-97996676D01*
X130546351Y-98005214D01*
X130444276Y-98081715D01*
X130431715Y-98094276D01*
X130355214Y-98196351D01*
X130346676Y-98211946D01*
X130301522Y-98332394D01*
X130297895Y-98347649D01*
X130292369Y-98398514D01*
X130292000Y-98405328D01*
X130292000Y-98477885D01*
X129732999Y-98477885D01*
X129732999Y-98455331D01*
X129732629Y-98448510D01*
X129727105Y-98397648D01*
X129723479Y-98382396D01*
X129678324Y-98261946D01*
X129669786Y-98246351D01*
X129593285Y-98144276D01*
X129580724Y-98131715D01*
X129478649Y-98055214D01*
X129463054Y-98046676D01*
X129342606Y-98001522D01*
X129327351Y-97997895D01*
X129276486Y-97992369D01*
X129269672Y-97992000D01*
X129168115Y-97992000D01*
X129152876Y-97996475D01*
X129151671Y-97997865D01*
X129150000Y-98005548D01*
X129150000Y-98481885D01*
X128750000Y-98481885D01*
X128750000Y-98010116D01*
X128745525Y-97994877D01*
X128744135Y-97993672D01*
X128736452Y-97992001D01*
X128726000Y-97992001D01*
X128657879Y-97971999D01*
X128611386Y-97918343D01*
X128600000Y-97866001D01*
X128600000Y-97034186D01*
X128982187Y-97034186D01*
X128982266Y-97035888D01*
X128987702Y-97095046D01*
X128990315Y-97108096D01*
X129034029Y-97247589D01*
X129040235Y-97261334D01*
X129115496Y-97385604D01*
X129124803Y-97397473D01*
X129227527Y-97500197D01*
X129239396Y-97509504D01*
X129363666Y-97584765D01*
X129377411Y-97590971D01*
X129516912Y-97634687D01*
X129528503Y-97637009D01*
X129542835Y-97634194D01*
X129546000Y-97622298D01*
X129546000Y-97620658D01*
X130054000Y-97620658D01*
X130058271Y-97635203D01*
X130070302Y-97637248D01*
X130083088Y-97634687D01*
X130222589Y-97590971D01*
X130236334Y-97584765D01*
X130360604Y-97509504D01*
X130372473Y-97500197D01*
X130410905Y-97461765D01*
X130473217Y-97427739D01*
X130544032Y-97432804D01*
X130589095Y-97461765D01*
X130627527Y-97500197D01*
X130639396Y-97509504D01*
X130763666Y-97584765D01*
X130777411Y-97590971D01*
X130916912Y-97634687D01*
X130928503Y-97637009D01*
X130942835Y-97634194D01*
X130946000Y-97622298D01*
X130946000Y-97039615D01*
X130941525Y-97024376D01*
X130940135Y-97023171D01*
X130932452Y-97021500D01*
X130072115Y-97021500D01*
X130056876Y-97025975D01*
X130055671Y-97027365D01*
X130054000Y-97035048D01*
X130054000Y-97620658D01*
X129546000Y-97620658D01*
X129546000Y-97039615D01*
X129541525Y-97024376D01*
X129540135Y-97023171D01*
X129532452Y-97021500D01*
X129000115Y-97021500D01*
X128984876Y-97025975D01*
X128983671Y-97027365D01*
X128982187Y-97034186D01*
X128600000Y-97034186D01*
X128600000Y-96426000D01*
X128620002Y-96357879D01*
X128673658Y-96311386D01*
X128726000Y-96300000D01*
X128862453Y-96300000D01*
X128930574Y-96320002D01*
G37*
%TD.AperFunction*%
%TD*%
%TA.AperFunction,Conductor*%
%TO.N,GND*%
G36*
X133026400Y-99320002D02*
G01*
X133047297Y-99336827D01*
X133075399Y-99364880D01*
X133189503Y-99420655D01*
X133222284Y-99425437D01*
X133259316Y-99430840D01*
X133259320Y-99430840D01*
X133263842Y-99431500D01*
X134536158Y-99431500D01*
X134540706Y-99430830D01*
X134540713Y-99430830D01*
X134601459Y-99421888D01*
X134601461Y-99421887D01*
X134611144Y-99420462D01*
X134725151Y-99364487D01*
X134752608Y-99336982D01*
X134814890Y-99302903D01*
X134841781Y-99300000D01*
X135089895Y-99300000D01*
X135158016Y-99320002D01*
X135204509Y-99373658D01*
X135214613Y-99443932D01*
X135210129Y-99463680D01*
X135190315Y-99526907D01*
X135187702Y-99539954D01*
X135182463Y-99596962D01*
X135186475Y-99610624D01*
X135187865Y-99611829D01*
X135195548Y-99613500D01*
X136128000Y-99613500D01*
X136196121Y-99633502D01*
X136242614Y-99687158D01*
X136254000Y-99739500D01*
X136254000Y-100720658D01*
X136258271Y-100735203D01*
X136270302Y-100737248D01*
X136283088Y-100734687D01*
X136429838Y-100688699D01*
X136430258Y-100690038D01*
X136492469Y-100681367D01*
X136556922Y-100711138D01*
X136595048Y-100771029D01*
X136600000Y-100806006D01*
X136600000Y-102174000D01*
X136579998Y-102242121D01*
X136526342Y-102288614D01*
X136474000Y-102300000D01*
X132426000Y-102300000D01*
X132357879Y-102279998D01*
X132311386Y-102226342D01*
X132300000Y-102174000D01*
X132300000Y-101232850D01*
X132318136Y-101176193D01*
X132314880Y-101174601D01*
X132370655Y-101060497D01*
X132380258Y-100994672D01*
X132380258Y-100994669D01*
X132792001Y-100994669D01*
X132792371Y-101001490D01*
X132797895Y-101052352D01*
X132801521Y-101067604D01*
X132846676Y-101188054D01*
X132855214Y-101203649D01*
X132931715Y-101305724D01*
X132944276Y-101318285D01*
X133046351Y-101394786D01*
X133061946Y-101403324D01*
X133182394Y-101448478D01*
X133197649Y-101452105D01*
X133248514Y-101457631D01*
X133255328Y-101458000D01*
X133627885Y-101458000D01*
X133643124Y-101453525D01*
X133644329Y-101452135D01*
X133646000Y-101444452D01*
X133646000Y-101439884D01*
X134154000Y-101439884D01*
X134158475Y-101455123D01*
X134159865Y-101456328D01*
X134167548Y-101457999D01*
X134544669Y-101457999D01*
X134551490Y-101457629D01*
X134602352Y-101452105D01*
X134617604Y-101448479D01*
X134738054Y-101403324D01*
X134753649Y-101394786D01*
X134855724Y-101318285D01*
X134868285Y-101305724D01*
X134944786Y-101203649D01*
X134953324Y-101188054D01*
X134998478Y-101067606D01*
X135002105Y-101052351D01*
X135007631Y-101001486D01*
X135008000Y-100994672D01*
X135008000Y-100922115D01*
X135003525Y-100906876D01*
X135002135Y-100905671D01*
X134994452Y-100904000D01*
X134172115Y-100904000D01*
X134156876Y-100908475D01*
X134155671Y-100909865D01*
X134154000Y-100917548D01*
X134154000Y-101439884D01*
X133646000Y-101439884D01*
X133646000Y-100922115D01*
X133641525Y-100906876D01*
X133640135Y-100905671D01*
X133632452Y-100904000D01*
X132810116Y-100904000D01*
X132794877Y-100908475D01*
X132793672Y-100909865D01*
X132792001Y-100917548D01*
X132792001Y-100994669D01*
X132380258Y-100994669D01*
X132380840Y-100990684D01*
X132380840Y-100990680D01*
X132381500Y-100986158D01*
X132381500Y-100380066D01*
X132382140Y-100377885D01*
X132792000Y-100377885D01*
X132796475Y-100393124D01*
X132797865Y-100394329D01*
X132805548Y-100396000D01*
X133627885Y-100396000D01*
X133643124Y-100391525D01*
X133644329Y-100390135D01*
X133646000Y-100382452D01*
X133646000Y-100377885D01*
X134154000Y-100377885D01*
X134158475Y-100393124D01*
X134159865Y-100394329D01*
X134167548Y-100396000D01*
X134989884Y-100396000D01*
X135005123Y-100391525D01*
X135009413Y-100386574D01*
X135039599Y-100331293D01*
X135101912Y-100297268D01*
X135172727Y-100302334D01*
X135229563Y-100344881D01*
X135236470Y-100355118D01*
X135315493Y-100485601D01*
X135324803Y-100497473D01*
X135427527Y-100600197D01*
X135439396Y-100609504D01*
X135563666Y-100684765D01*
X135577411Y-100690971D01*
X135716912Y-100734687D01*
X135728503Y-100737009D01*
X135742835Y-100734194D01*
X135746000Y-100722298D01*
X135746000Y-100139615D01*
X135741525Y-100124376D01*
X135740135Y-100123171D01*
X135732452Y-100121500D01*
X135200115Y-100121500D01*
X135184877Y-100125974D01*
X135165725Y-100148077D01*
X135105999Y-100186461D01*
X135035003Y-100186461D01*
X134975276Y-100148078D01*
X134958269Y-100119470D01*
X134957634Y-100119818D01*
X134944786Y-100096351D01*
X134868285Y-99994276D01*
X134855724Y-99981715D01*
X134753649Y-99905214D01*
X134738054Y-99896676D01*
X134617606Y-99851522D01*
X134602351Y-99847895D01*
X134551486Y-99842369D01*
X134544672Y-99842000D01*
X134172115Y-99842000D01*
X134156876Y-99846475D01*
X134155671Y-99847865D01*
X134154000Y-99855548D01*
X134154000Y-100377885D01*
X133646000Y-100377885D01*
X133646000Y-99860116D01*
X133641525Y-99844877D01*
X133640135Y-99843672D01*
X133632452Y-99842001D01*
X133255331Y-99842001D01*
X133248510Y-99842371D01*
X133197648Y-99847895D01*
X133182396Y-99851521D01*
X133061946Y-99896676D01*
X133046351Y-99905214D01*
X132944276Y-99981715D01*
X132931715Y-99994276D01*
X132855214Y-100096351D01*
X132846676Y-100111946D01*
X132801522Y-100232394D01*
X132797895Y-100247649D01*
X132792369Y-100298514D01*
X132792000Y-100305328D01*
X132792000Y-100377885D01*
X132382140Y-100377885D01*
X132401502Y-100311945D01*
X132406674Y-100304501D01*
X132444786Y-100253648D01*
X132453324Y-100238054D01*
X132498478Y-100117606D01*
X132502105Y-100102351D01*
X132507631Y-100051486D01*
X132508000Y-100044672D01*
X132508000Y-99972115D01*
X132503525Y-99956876D01*
X132502135Y-99955671D01*
X132494452Y-99954000D01*
X131272000Y-99954000D01*
X131203879Y-99933998D01*
X131157386Y-99880342D01*
X131146000Y-99828000D01*
X131146000Y-99572000D01*
X131166002Y-99503879D01*
X131219658Y-99457386D01*
X131272000Y-99446000D01*
X132489884Y-99446000D01*
X132505123Y-99441525D01*
X132506328Y-99440135D01*
X132507999Y-99432452D01*
X132507999Y-99426000D01*
X132528001Y-99357879D01*
X132581657Y-99311386D01*
X132633999Y-99300000D01*
X132958279Y-99300000D01*
X133026400Y-99320002D01*
G37*
%TD.AperFunction*%
%TD*%
%TA.AperFunction,Conductor*%
%TO.N,/Vdd*%
G36*
X136542121Y-97120002D02*
G01*
X136588614Y-97173658D01*
X136600000Y-97226000D01*
X136600000Y-97793994D01*
X136579998Y-97862115D01*
X136526342Y-97908608D01*
X136456068Y-97918712D01*
X136429904Y-97911090D01*
X136429838Y-97911301D01*
X136283088Y-97865313D01*
X136271497Y-97862991D01*
X136257165Y-97865806D01*
X136254000Y-97877702D01*
X136254000Y-98860500D01*
X136233998Y-98928621D01*
X136180342Y-98975114D01*
X136128000Y-98986500D01*
X135872000Y-98986500D01*
X135803879Y-98966498D01*
X135757386Y-98912842D01*
X135746000Y-98860500D01*
X135746000Y-97879342D01*
X135741729Y-97864797D01*
X135729698Y-97862752D01*
X135716912Y-97865313D01*
X135577411Y-97909029D01*
X135563666Y-97915235D01*
X135439396Y-97990496D01*
X135427527Y-97999803D01*
X135324803Y-98102527D01*
X135315496Y-98114396D01*
X135240235Y-98238666D01*
X135234030Y-98252409D01*
X135222708Y-98288537D01*
X135183250Y-98347559D01*
X135118146Y-98375879D01*
X135048066Y-98364505D01*
X134995261Y-98317048D01*
X134984492Y-98295086D01*
X134953325Y-98211948D01*
X134944786Y-98196351D01*
X134868285Y-98094276D01*
X134855724Y-98081715D01*
X134753649Y-98005214D01*
X134738054Y-97996676D01*
X134617606Y-97951522D01*
X134602351Y-97947895D01*
X134551486Y-97942369D01*
X134544672Y-97942000D01*
X134172115Y-97942000D01*
X134156876Y-97946475D01*
X134155671Y-97947865D01*
X134154000Y-97955548D01*
X134154000Y-98878000D01*
X134133998Y-98946121D01*
X134080342Y-98992614D01*
X134028000Y-99004000D01*
X133772000Y-99004000D01*
X133703879Y-98983998D01*
X133657386Y-98930342D01*
X133646000Y-98878000D01*
X133646000Y-97960116D01*
X133641525Y-97944877D01*
X133640135Y-97943672D01*
X133632452Y-97942001D01*
X133255331Y-97942001D01*
X133248510Y-97942371D01*
X133197648Y-97947895D01*
X133182396Y-97951521D01*
X133061946Y-97996676D01*
X133046351Y-98005214D01*
X132944276Y-98081715D01*
X132933615Y-98092376D01*
X132871303Y-98126402D01*
X132860966Y-98128203D01*
X132759808Y-98141521D01*
X132754423Y-98142230D01*
X132750677Y-98142723D01*
X132750519Y-98141521D01*
X132687628Y-98140021D01*
X132628834Y-98100224D01*
X132600890Y-98034958D01*
X132600000Y-98020006D01*
X132600000Y-97226000D01*
X132620002Y-97157879D01*
X132673658Y-97111386D01*
X132726000Y-97100000D01*
X136474000Y-97100000D01*
X136542121Y-97120002D01*
G37*
%TD.AperFunction*%
%TD*%
M02*
